<svg width="1596" height="1037" viewBox="0 0 1596 1037" fill="none" xmlns="http://www.w3.org/2000/svg">
<path d="M1083.26 694.207H1163.9V494.678H837.515C758.798 494.678 702.161 617.589 837.515 694.207H758.799V894.678H1083.26C1107.26 894.678 1249.53 788.323 1083.26 694.207Z" fill="black"/>
<path fill-rule="evenodd" clip-rule="evenodd" d="M1189.82 894.678C1189.82 894.678 1327.38 793.97 1405.38 793.97C1483.38 793.97 1504.68 793.97 1504.68 793.97C1565.16 793.97 1595.88 779.852 1595.88 704.558V562.441C1595.88 523.852 1571.88 494.678 1504.68 494.678H1255.1C1211.9 494.678 1189.82 516.135 1189.82 564.323V894.678Z" fill="black"/>
<path d="M1595.88 290.427C1595.88 301.054 1595.15 311.681 1593.69 322.309C1572.85 323.652 1552.14 325.851 1531.55 328.905C1510.95 331.837 1490.36 334.768 1469.77 337.7C1472.94 346.495 1477.87 353.519 1484.57 358.772C1491.4 364.024 1499.5 366.65 1508.88 366.65C1513.76 366.65 1519.06 365.734 1524.78 363.902C1530.63 362.07 1536.42 359.81 1542.15 357.122C1547.87 354.313 1553.36 351.32 1558.6 348.144C1563.83 344.968 1568.34 342.098 1572.12 339.532L1563.35 422.719C1558.6 426.383 1553.42 429.498 1547.81 432.063C1542.33 434.629 1536.6 436.705 1530.63 438.293C1524.66 439.881 1518.63 441.042 1512.54 441.775C1506.45 442.508 1500.47 442.874 1494.63 442.874C1482.56 442.874 1471.54 441.225 1461.55 437.927C1451.55 434.629 1442.48 430.048 1434.31 424.185C1426.27 418.199 1419.2 411.175 1413.11 403.113C1407.02 395.051 1401.96 386.256 1397.94 376.728C1393.92 367.2 1390.88 357.122 1388.8 346.495C1386.73 335.868 1385.7 325.118 1385.7 314.247C1385.7 302.886 1386.73 291.526 1388.8 280.166C1390.88 268.806 1393.98 257.873 1398.12 247.368C1402.39 236.863 1407.69 227.151 1414.03 218.234C1420.48 209.195 1427.98 201.316 1436.51 194.598C1445.04 187.879 1454.66 182.627 1465.38 178.84C1476.23 175.053 1488.17 173.16 1501.21 173.16C1512.05 173.16 1521.92 174.687 1530.81 177.74C1539.83 180.672 1547.81 184.825 1554.76 190.2C1561.82 195.453 1567.92 201.744 1573.03 209.073C1578.27 216.402 1582.54 224.464 1585.83 233.259C1589.24 241.932 1591.74 251.155 1593.32 260.927C1595.03 270.577 1595.88 280.41 1595.88 290.427ZM1522.77 280.899C1522.77 277.479 1522.41 273.997 1521.68 270.455C1520.94 266.79 1519.73 263.492 1518.02 260.56C1516.44 257.629 1514.3 255.247 1511.62 253.414C1508.94 251.46 1505.59 250.483 1501.57 250.483C1496.7 250.483 1492.37 251.826 1488.59 254.514C1484.94 257.079 1481.77 260.377 1479.09 264.408C1476.41 268.317 1474.22 272.592 1472.51 277.234C1470.81 281.876 1469.53 286.151 1468.67 290.06L1522.77 284.93V280.899ZM1516.92 168.762L1488.41 131.383L1466.11 166.93L1425.91 149.706C1428.22 145.92 1431.08 141.522 1434.5 136.514C1437.91 131.383 1441.5 126.131 1445.28 120.756C1449.06 115.259 1452.89 109.823 1456.79 104.449C1460.69 98.9517 1464.41 93.8823 1467.94 89.2405L1505.59 88.874L1555.67 144.942L1516.92 168.762Z" fill="black"/>
<path d="M1383.32 341.364L1375.64 422.718L1221.75 434.811L1227.6 173.159H1322.64L1309.12 341.364H1383.32Z" fill="black"/>
<path d="M1210.24 298.123C1210.24 309.238 1208.96 319.988 1206.4 330.371C1203.84 340.632 1200.13 350.282 1195.25 359.321C1190.5 368.361 1184.65 376.667 1177.71 384.241C1170.88 391.692 1163.15 398.105 1154.5 403.48C1145.97 408.854 1136.65 413.069 1126.53 416.123C1116.42 419.054 1105.7 420.52 1094.37 420.52C1083.4 420.52 1072.92 419.115 1062.93 416.306C1053.06 413.496 1043.8 409.587 1035.15 404.579C1026.5 399.449 1018.64 393.341 1011.57 386.256C1004.63 379.049 998.656 371.109 993.66 362.436C988.786 353.641 984.948 344.235 982.146 334.219C979.465 324.202 978.125 313.758 978.125 302.887C978.125 292.259 979.404 281.876 981.963 271.737C984.522 261.477 988.177 251.826 992.929 242.787C997.803 233.748 1003.65 225.441 1010.47 217.868C1017.3 210.294 1024.91 203.759 1033.32 198.262C1041.85 192.765 1051.05 188.49 1060.92 185.436C1070.79 182.382 1081.21 180.855 1092.17 180.855C1109.84 180.855 1125.92 183.604 1140.42 189.101C1155.04 194.598 1167.47 202.477 1177.71 212.737C1188.06 222.876 1196.05 235.214 1201.65 249.75C1207.38 264.164 1210.24 280.288 1210.24 298.123ZM1129.09 302.887C1129.09 297.634 1128.3 292.565 1126.72 287.678C1125.25 282.67 1123.06 278.273 1120.14 274.486C1117.21 270.577 1113.56 267.462 1109.17 265.141C1104.9 262.698 1099.97 261.477 1094.37 261.477C1088.64 261.477 1083.52 262.515 1079.01 264.591C1074.5 266.668 1070.61 269.539 1067.32 273.203C1064.15 276.746 1061.71 280.96 1060 285.846C1058.3 290.61 1057.45 295.679 1057.45 301.054C1057.45 306.185 1058.18 311.315 1059.64 316.446C1061.1 321.576 1063.29 326.218 1066.22 330.371C1069.14 334.524 1072.74 337.883 1077 340.449C1081.39 343.014 1086.45 344.296 1092.17 344.296C1097.9 344.296 1103.02 343.197 1107.52 340.998C1112.15 338.677 1116.05 335.624 1119.22 331.837C1122.39 327.928 1124.83 323.469 1126.53 318.461C1128.24 313.453 1129.09 308.261 1129.09 302.887Z" fill="black"/>
<path d="M971.545 261.843C971.545 271.371 970.692 280.044 968.987 287.861C967.403 295.557 964.844 302.642 961.31 309.116C957.777 315.59 953.208 321.576 947.603 327.073C941.998 332.569 935.235 337.822 927.315 342.83L970.814 420.52L888.569 436.644L860.423 358.588L837.759 359.321L834.469 435.545H755.879C756.489 407.694 757.037 379.965 757.524 352.358C758.134 324.752 758.804 297.023 759.535 269.172C759.778 255.124 760.022 241.199 760.266 227.395C760.51 213.592 760.997 199.667 761.728 185.619C770.257 182.443 778.664 179.817 786.95 177.74C795.235 175.664 803.521 174.076 811.806 172.976C820.214 171.755 828.682 170.961 837.211 170.594C845.862 170.106 854.696 169.861 863.712 169.861C877.603 169.861 891.006 171.816 903.921 175.725C916.959 179.511 928.473 185.253 938.464 192.948C948.456 200.644 956.436 210.233 962.407 221.715C968.499 233.198 971.545 246.574 971.545 261.843ZM889.665 267.706C889.665 262.576 888.934 257.873 887.472 253.597C886.132 249.322 884.06 245.657 881.258 242.604C878.577 239.428 875.166 236.985 871.023 235.274C867.002 233.442 862.25 232.526 856.767 232.526C854.33 232.526 851.954 232.709 849.639 233.076C847.324 233.32 845.07 233.747 842.877 234.358L839.953 302.52H844.339C849.578 302.52 854.879 301.848 860.24 300.504C865.723 299.161 870.597 297.084 874.861 294.274C879.248 291.465 882.781 287.861 885.462 283.464C888.264 279.066 889.665 273.814 889.665 267.706Z" fill="black"/>
<path fill-rule="evenodd" clip-rule="evenodd" d="M646.471 243.719C583.16 134.061 416.818 51.351 253.257 145.783C89.6953 240.215 77.4 426.062 140.711 535.72C202.418 642.6 421.69 755.763 588.669 841.938C622.713 859.508 654.584 875.956 682.503 891C683.429 873.36 684.552 854.068 685.749 833.502C696.534 648.212 713.338 359.537 646.471 243.719ZM507.132 336.38C541.65 396.167 521.166 472.615 461.379 507.133C401.593 541.651 325.144 521.167 290.626 461.38C256.108 401.594 276.593 325.145 336.379 290.627C396.166 256.109 472.615 276.594 507.132 336.38Z" fill="black"/>
<path fill-rule="evenodd" clip-rule="evenodd" d="M386.88 598.39L616.879 598.39L616.879 538.39L596.879 538.389L596.879 578.39L366.878 578.389V721.971C373.343 725.796 379.857 729.603 386.409 733.39L386.879 733.389L386.88 598.39Z" fill="white"/>
<path fill-rule="evenodd" clip-rule="evenodd" d="M606.879 529.391C626.209 529.391 641.879 513.72 641.879 494.391C641.879 475.061 626.209 459.391 606.879 459.391C587.549 459.391 571.879 475.061 571.879 494.391C571.879 513.72 587.549 529.391 606.879 529.391ZM622.788 494.391C622.788 503.177 615.665 510.3 606.879 510.3C598.093 510.3 590.97 503.177 590.97 494.391C590.97 485.605 598.093 478.482 606.879 478.482C615.665 478.482 622.788 485.605 622.788 494.391Z" fill="white"/>
</svg>
