<svg width="315" height="400" viewBox="0 0 315 400" fill="none" xmlns="http://www.w3.org/2000/svg">
<path d="M157.5 304.761C167.942 304.761 177.958 300.749 185.342 293.604C192.727 286.46 196.875 276.77 196.875 266.667C196.875 256.563 192.727 246.873 185.342 239.729C177.958 232.586 167.942 228.571 157.5 228.571C147.058 228.571 137.042 232.586 129.658 239.729C122.273 246.873 118.125 256.563 118.125 266.667C118.125 276.77 122.273 286.46 129.658 293.604C137.042 300.749 147.058 304.761 157.5 304.761ZM275.625 133.333C286.067 133.333 296.083 137.347 303.467 144.491C310.852 151.636 315 161.326 315 171.429V361.904C315 372.009 310.852 381.699 303.467 388.843C296.083 395.986 286.067 400 275.625 400H39.375C28.932 400 18.9169 395.986 11.5327 388.843C4.14842 381.699 0 372.009 0 361.904V171.429C0 161.326 4.14842 151.636 11.5327 144.491C18.9169 137.347 28.932 133.333 39.375 133.333H59.0625V95.2381C59.0625 69.9794 69.4336 45.7551 87.8942 27.8946C106.355 10.034 131.393 0 157.5 0C170.426 0 183.227 2.4634 195.17 7.24957C207.114 12.0357 217.966 19.0509 227.106 27.8946C236.247 36.7383 243.498 47.2373 248.445 58.792C253.392 70.3469 255.938 82.7313 255.938 95.2381V133.333H275.625ZM157.5 38.0953C141.836 38.0953 126.813 44.1156 115.736 54.832C104.66 65.5484 98.4375 80.0829 98.4375 95.2381V133.333H216.562V95.2381C216.562 80.0829 210.34 65.5484 199.263 54.832C188.187 44.1156 173.164 38.0953 157.5 38.0953Z" fill="black"/>
</svg>
