<svg width="416" height="271" viewBox="0 0 416 271" fill="none" xmlns="http://www.w3.org/2000/svg">
<path d="M208 4C291.292 4 364.356 47.2995 405.335 112.475C414.221 126.608 414.222 144.392 405.335 158.525C364.356 223.7 291.292 267 208 267C124.707 267 51.6433 223.7 10.665 158.525C1.77867 144.392 1.7787 126.608 10.665 112.475C51.6433 47.2995 124.707 4.00003 208 4ZM208 31.6152C139.67 31.6153 79.4574 64.4986 42.3213 115.181C33.3961 127.362 33.3962 143.638 42.3213 155.819C79.4574 206.502 139.67 239.385 208 239.385C276.33 239.385 336.543 206.502 373.679 155.819C382.604 143.638 382.604 127.362 373.679 115.181C336.543 64.4984 276.33 31.6152 208 31.6152ZM208 43.2305C259.776 43.2305 301.298 84.2089 301.298 135.5C301.298 186.792 259.776 227.769 208 227.769C156.224 227.769 114.702 186.792 114.702 135.5C114.702 84.2089 156.224 43.2305 208 43.2305ZM208 71.5C190.526 71.5 173.904 77.7357 161.701 89.7988C149.431 101.927 142.547 118.368 142.547 135.5C142.547 152.632 149.431 169.073 161.701 181.201L162.28 181.766C174.493 193.542 190.897 200.153 208 200.153C225.374 200.153 242.029 193.331 254.299 181.201L254.87 180.63C266.782 168.559 273.453 152.365 273.453 135.5C273.453 118.368 266.569 101.927 254.299 89.7988C242.096 77.7357 225.474 71.5 208 71.5Z" fill="black" stroke="black" stroke-width="8"/>
</svg>
