<svg width="400" height="400" viewBox="0 0 400 400" fill="none" xmlns="http://www.w3.org/2000/svg">
<path d="M303.746 218.885C317.632 205.301 340.146 205.301 354.031 218.885L389.59 253.671C403.471 267.254 403.474 289.282 389.59 302.863L300.7 389.809C294.032 396.333 284.986 400 275.557 400H239.997C220.364 399.997 204.452 384.421 204.452 365.213V330.44C204.452 321.218 208.189 312.366 214.855 305.844L303.746 218.885Z" fill="black"/>
<path fill-rule="evenodd" clip-rule="evenodd" d="M213.342 0C267.336 0.00573451 311.112 42.8363 311.112 95.6591C311.108 177.581 231.114 164.155 231.114 217.392C231.114 236.602 215.191 252.179 195.555 252.179C122.776 252.179 71.118 302.631 71.118 356.525C71.1156 375.733 55.1939 391.298 35.559 391.298C15.9242 391.298 0.00234283 375.733 0 356.525C0 263.428 79.7314 192.675 174.826 183.599C139.971 168.977 115.559 135.107 115.557 95.6591C115.557 42.8327 159.341 0 213.342 0Z" fill="black"/>
</svg>
