<svg width="400" height="400" viewBox="0 0 400 400" fill="none" xmlns="http://www.w3.org/2000/svg">
<path fill-rule="evenodd" clip-rule="evenodd" d="M111.111 88.8888C111.111 65.3142 120.476 42.7048 137.146 26.035C153.816 9.36505 176.425 0 200 0C223.575 0 246.183 9.36505 262.853 26.035C279.523 42.7048 288.888 65.3142 288.888 88.8888C288.888 112.464 279.523 135.073 262.853 151.743C246.183 168.413 223.575 177.778 200 177.778C176.425 177.778 153.816 168.413 137.146 151.743C120.476 135.073 111.111 112.464 111.111 88.8888ZM111.111 205C50.5931 205 0 272.815 0 333.333C0 351.015 7.02378 367.972 19.5262 380.473C32.0287 392.977 48.9855 400 66.6667 400H333.333C351.015 400 367.972 392.977 380.473 380.473C392.977 367.972 400 351.015 400 333.333C400 272.815 349.407 205 288.888 205H111.111Z" fill="black"/>
</svg>
