<svg width="1596" height="1037" viewBox="0 0 1596 1037" fill="none" xmlns="http://www.w3.org/2000/svg">
<path d="M1083.26 708.048H1163.9V508.519H837.515C758.798 508.519 702.161 631.43 837.515 708.048H758.799V908.519H1083.26C1107.26 908.519 1249.53 802.164 1083.26 708.048Z" fill="#085E50"/>
<path fill-rule="evenodd" clip-rule="evenodd" d="M1189.82 908.519C1189.82 908.519 1327.38 807.811 1405.38 807.811C1483.38 807.811 1504.68 807.811 1504.68 807.811C1565.16 807.811 1595.88 793.693 1595.88 718.399V576.281C1595.88 537.693 1571.88 508.519 1504.68 508.519H1255.1C1211.9 508.519 1189.82 529.976 1189.82 578.164V908.519Z" fill="#0DA58C"/>
<path d="M1595.88 304.268C1595.88 314.895 1595.15 325.522 1593.69 336.15C1572.85 337.493 1552.14 339.692 1531.55 342.746C1510.95 345.678 1490.36 348.609 1469.77 351.541C1472.94 360.336 1477.87 367.36 1484.57 372.612C1491.4 377.865 1499.5 380.491 1508.88 380.491C1513.76 380.491 1519.06 379.575 1524.78 377.743C1530.63 375.91 1536.42 373.651 1542.15 370.963C1547.87 368.154 1553.36 365.161 1558.6 361.985C1563.83 358.809 1568.34 355.938 1572.12 353.373L1563.35 436.56C1558.6 440.224 1553.42 443.339 1547.81 445.904C1542.33 448.47 1536.6 450.546 1530.63 452.134C1524.66 453.722 1518.63 454.883 1512.54 455.615C1506.45 456.348 1500.47 456.715 1494.63 456.715C1482.56 456.715 1471.54 455.066 1461.55 451.768C1451.55 448.47 1442.48 443.889 1434.31 438.025C1426.27 432.04 1419.2 425.016 1413.11 416.954C1407.02 408.892 1401.96 400.097 1397.94 390.569C1393.92 381.041 1390.88 370.963 1388.8 360.336C1386.73 349.709 1385.7 338.959 1385.7 328.088C1385.7 316.727 1386.73 305.367 1388.8 294.007C1390.88 282.647 1393.98 271.714 1398.12 261.209C1402.39 250.703 1407.69 240.992 1414.03 232.075C1420.48 223.036 1427.98 215.157 1436.51 208.438C1445.04 201.72 1454.66 196.467 1465.38 192.681C1476.23 188.894 1488.17 187.001 1501.21 187.001C1512.05 187.001 1521.92 188.527 1530.81 191.581C1539.83 194.513 1547.81 198.666 1554.76 204.041C1561.82 209.294 1567.92 215.584 1573.03 222.914C1578.27 230.243 1582.54 238.305 1585.83 247.1C1589.24 255.773 1591.74 264.995 1593.32 274.768C1595.03 284.418 1595.88 294.251 1595.88 304.268ZM1522.77 294.74C1522.77 291.319 1522.41 287.838 1521.68 284.296C1520.94 280.631 1519.73 277.333 1518.02 274.401C1516.44 271.469 1514.3 269.088 1511.62 267.255C1508.94 265.301 1505.59 264.324 1501.57 264.324C1496.7 264.324 1492.37 265.667 1488.59 268.355C1484.94 270.92 1481.77 274.218 1479.09 278.249C1476.41 282.158 1474.22 286.433 1472.51 291.075C1470.81 295.717 1469.53 299.992 1468.67 303.901L1522.77 298.771V294.74ZM1516.92 182.603L1488.41 145.224L1466.11 180.771L1425.91 163.547C1428.22 159.76 1431.08 155.363 1434.5 150.355C1437.91 145.224 1441.5 139.972 1445.28 134.597C1449.06 129.1 1452.89 123.664 1456.79 118.289C1460.69 112.792 1464.41 107.723 1467.94 103.081L1505.59 102.715L1555.67 158.783L1516.92 182.603Z" fill="black"/>
<path d="M1383.32 355.205L1375.64 436.559L1221.75 448.652L1227.6 187H1322.64L1309.12 355.205H1383.32Z" fill="black"/>
<path d="M1210.24 311.963C1210.24 323.079 1208.96 333.829 1206.4 344.212C1203.84 354.473 1200.13 364.123 1195.25 373.162C1190.5 382.201 1184.65 390.508 1177.71 398.081C1170.88 405.533 1163.15 411.946 1154.5 417.321C1145.97 422.695 1136.65 426.91 1126.53 429.963C1116.42 432.895 1105.7 434.361 1094.37 434.361C1083.4 434.361 1072.92 432.956 1062.93 430.147C1053.06 427.337 1043.8 423.428 1035.15 418.42C1026.5 413.289 1018.64 407.182 1011.57 400.097C1004.63 392.89 998.656 384.95 993.66 376.277C988.786 367.482 984.948 358.076 982.146 348.06C979.465 338.043 978.125 327.599 978.125 316.727C978.125 306.1 979.404 295.717 981.963 285.578C984.522 275.317 988.177 265.667 992.929 256.628C997.803 247.589 1003.65 239.282 1010.47 231.709C1017.3 224.135 1024.91 217.6 1033.32 212.103C1041.85 206.606 1051.05 202.331 1060.92 199.277C1070.79 196.223 1081.21 194.696 1092.17 194.696C1109.84 194.696 1125.92 197.445 1140.42 202.942C1155.04 208.439 1167.47 216.317 1177.71 226.578C1188.06 236.717 1196.05 249.054 1201.65 263.591C1207.38 278.005 1210.24 294.129 1210.24 311.963ZM1129.09 316.727C1129.09 311.475 1128.3 306.405 1126.72 301.519C1125.25 296.511 1123.06 292.113 1120.14 288.327C1117.21 284.418 1113.56 281.303 1109.17 278.982C1104.9 276.539 1099.97 275.317 1094.37 275.317C1088.64 275.317 1083.52 276.356 1079.01 278.432C1074.5 280.509 1070.61 283.38 1067.32 287.044C1064.15 290.587 1061.71 294.801 1060 299.687C1058.3 304.451 1057.45 309.52 1057.45 314.895C1057.45 320.025 1058.18 325.156 1059.64 330.286C1061.1 335.417 1063.29 340.059 1066.22 344.212C1069.14 348.365 1072.74 351.724 1077 354.289C1081.39 356.855 1086.45 358.137 1092.17 358.137C1097.9 358.137 1103.02 357.038 1107.52 354.839C1112.15 352.518 1116.05 349.464 1119.22 345.678C1122.39 341.769 1124.83 337.31 1126.53 332.302C1128.24 327.294 1129.09 322.102 1129.09 316.727Z" fill="black"/>
<path d="M971.545 275.684C971.545 285.211 970.692 293.884 968.987 301.702C967.403 309.398 964.844 316.483 961.31 322.957C957.777 329.431 953.208 335.416 947.603 340.913C941.998 346.41 935.235 351.663 927.315 356.671L970.814 434.361L888.569 450.485L860.423 372.429L837.759 373.162L834.469 449.385H755.879C756.489 421.534 757.037 393.806 757.524 366.199C758.134 338.592 758.804 310.864 759.535 283.013C759.778 268.965 760.022 255.04 760.266 241.236C760.51 227.433 760.997 213.508 761.728 199.46C770.257 196.284 778.664 193.658 786.95 191.581C795.235 189.504 803.521 187.916 811.806 186.817C820.214 185.596 828.682 184.802 837.211 184.435C845.862 183.946 854.696 183.702 863.712 183.702C877.603 183.702 891.006 185.657 903.921 189.566C916.959 193.352 928.473 199.093 938.464 206.789C948.456 214.485 956.436 224.074 962.407 235.556C968.499 247.039 971.545 260.414 971.545 275.684ZM889.665 281.547C889.665 276.416 888.934 271.714 887.472 267.438C886.132 263.163 884.06 259.498 881.258 256.444C878.577 253.268 875.166 250.825 871.023 249.115C867.002 247.283 862.25 246.367 856.767 246.367C854.33 246.367 851.954 246.55 849.639 246.916C847.324 247.161 845.07 247.588 842.877 248.199L839.953 316.361H844.339C849.578 316.361 854.879 315.689 860.24 314.345C865.723 313.001 870.597 310.925 874.861 308.115C879.248 305.306 882.781 301.702 885.462 297.305C888.264 292.907 889.665 287.655 889.665 281.547Z" fill="black"/>
<path fill-rule="evenodd" clip-rule="evenodd" d="M646.471 243.846C583.16 134.188 416.818 51.4779 253.257 145.91C89.6953 240.342 77.4 426.189 140.711 535.847C202.418 642.727 421.69 755.89 588.669 842.065C622.713 859.635 654.584 876.083 682.503 891.127C683.429 873.487 684.552 854.195 685.749 833.629C696.534 648.339 713.338 359.664 646.471 243.846ZM507.132 336.507C541.65 396.294 521.166 472.742 461.379 507.26C401.593 541.778 325.144 521.294 290.626 461.507C256.108 401.72 276.593 325.272 336.379 290.754C396.166 256.236 472.615 276.72 507.132 336.507Z" fill="#0DA58C"/>
<path fill-rule="evenodd" clip-rule="evenodd" d="M523.547 389.516L686.761 389.516C685.917 382.739 685.006 376.068 684.023 369.516L520.384 369.516C521.994 376.137 523.043 382.825 523.547 389.516ZM274.228 389.515C274.748 382.764 275.814 376.075 277.407 369.516L166.879 369.516L166.879 219.202C159.504 228.428 152.848 237.945 146.879 247.689L146.879 369.515L106.58 369.516C105.945 376.2 105.542 382.873 105.363 389.516L197.879 389.516L197.879 603.147C204.228 608.949 210.906 614.749 217.879 620.543L217.879 389.515L274.228 389.515Z" fill="#00BFBF"/>
<path fill-rule="evenodd" clip-rule="evenodd" d="M366.879 519.84L366.879 722.098C373.344 725.922 379.857 729.729 386.409 733.516H386.88L386.879 598.516L564.879 598.515L564.879 829.778C571.615 833.262 578.287 836.706 584.879 840.108V598.515L695.662 598.516C695.748 591.848 695.809 585.179 695.844 578.517L386.879 578.516L386.879 523.438C380.118 522.78 373.428 521.575 366.879 519.84Z" fill="#00BFBF"/>
<path fill-rule="evenodd" clip-rule="evenodd" d="M348.879 193.517L608.238 193.517C601.525 186.57 594.371 179.885 586.815 173.517L348.879 173.517L348.879 109.682C342.24 110.955 335.571 112.481 328.879 114.27L328.879 295.438C331.305 293.801 333.806 292.238 336.379 290.753C340.474 288.388 344.647 286.282 348.879 284.429L348.879 193.517Z" fill="#00BFBF"/>
<path fill-rule="evenodd" clip-rule="evenodd" d="M386.88 598.517L616.879 598.517L616.879 538.517L596.879 538.516L596.879 578.517L366.878 578.516V722.098C373.343 725.923 379.857 729.73 386.409 733.517L386.879 733.516L386.88 598.517Z" fill="white"/>
<path fill-rule="evenodd" clip-rule="evenodd" d="M606.879 529.518C626.209 529.518 641.879 513.847 641.879 494.518C641.879 475.188 626.209 459.518 606.879 459.518C587.549 459.518 571.879 475.188 571.879 494.518C571.879 513.847 587.549 529.518 606.879 529.518ZM622.788 494.518C622.788 503.304 615.665 510.427 606.879 510.427C598.093 510.427 590.97 503.304 590.97 494.518C590.97 485.732 598.093 478.608 606.879 478.608C615.665 478.608 622.788 485.732 622.788 494.518Z" fill="white"/>
<path d="M259.585 156.609C416.164 66.2077 575.255 145.234 635.724 249.97C651.344 277.025 662.52 315.072 670.081 360.719C677.611 406.186 681.416 458.293 682.812 512.878C685.606 622.075 678.747 740.043 673.349 832.776C672.581 845.971 671.844 858.661 671.168 870.734C647.556 858.222 621.67 844.862 594.481 830.83C510.894 787.693 414.819 738.1 331.944 686.01C248.496 633.559 180.761 579.953 151.615 529.47C91.4095 425.191 102.873 248.421 257.757 157.672L259.585 156.609ZM330.208 279.802C264.443 317.771 241.91 401.865 279.88 467.63C317.849 533.395 401.943 555.928 467.708 517.959C533.473 479.989 556.006 395.896 518.037 330.13C480.067 264.365 395.973 241.832 330.208 279.802Z" stroke="#085E50" stroke-width="25"/>
</svg>
