<svg width="1596" height="1037" viewBox="0 0 1596 1037" fill="none" xmlns="http://www.w3.org/2000/svg">
<path d="M1083.26 694.206H1163.9V494.677H837.515C758.798 494.677 702.161 617.588 837.515 694.206H758.799V894.677H1083.26C1107.26 894.677 1249.53 788.322 1083.26 694.206Z" fill="white"/>
<path fill-rule="evenodd" clip-rule="evenodd" d="M1189.82 894.677C1189.82 894.677 1327.38 793.969 1405.38 793.969C1483.38 793.969 1504.68 793.969 1504.68 793.969C1565.16 793.969 1595.88 779.851 1595.88 704.557V562.44C1595.88 523.851 1571.88 494.677 1504.68 494.677H1255.1C1211.9 494.677 1189.82 516.134 1189.82 564.322V894.677Z" fill="white"/>
<path d="M1595.88 290.426C1595.88 301.053 1595.15 311.68 1593.69 322.308C1572.85 323.652 1552.14 325.85 1531.55 328.904C1510.95 331.836 1490.36 334.767 1469.77 337.699C1472.94 346.494 1477.87 353.518 1484.57 358.771C1491.4 364.023 1499.5 366.649 1508.88 366.649C1513.76 366.649 1519.06 365.733 1524.78 363.901C1530.63 362.069 1536.42 359.809 1542.15 357.121C1547.87 354.312 1553.36 351.319 1558.6 348.143C1563.83 344.967 1568.34 342.097 1572.12 339.531L1563.35 422.718C1558.6 426.382 1553.42 429.497 1547.81 432.062C1542.33 434.628 1536.6 436.704 1530.63 438.292C1524.66 439.88 1518.63 441.041 1512.54 441.774C1506.45 442.507 1500.47 442.873 1494.63 442.873C1482.56 442.873 1471.54 441.224 1461.55 437.926C1451.55 434.628 1442.48 430.047 1434.31 424.184C1426.27 418.198 1419.2 411.174 1413.11 403.112C1407.02 395.05 1401.96 386.255 1397.94 376.727C1393.92 367.199 1390.88 357.121 1388.8 346.494C1386.73 335.867 1385.7 325.117 1385.7 314.246C1385.7 302.885 1386.73 291.525 1388.8 280.165C1390.88 268.805 1393.98 257.872 1398.12 247.367C1402.39 236.862 1407.69 227.15 1414.03 218.233C1420.48 209.194 1427.98 201.315 1436.51 194.597C1445.04 187.878 1454.66 182.626 1465.38 178.839C1476.23 175.052 1488.17 173.159 1501.21 173.159C1512.05 173.159 1521.92 174.686 1530.81 177.74C1539.83 180.671 1547.81 184.824 1554.76 190.199C1561.82 195.452 1567.92 201.743 1573.03 209.072C1578.27 216.401 1582.54 224.463 1585.83 233.258C1589.24 241.931 1591.74 251.154 1593.32 260.926C1595.03 270.576 1595.88 280.409 1595.88 290.426ZM1522.77 280.898C1522.77 277.478 1522.41 273.996 1521.68 270.454C1520.94 266.789 1519.73 263.491 1518.02 260.559C1516.44 257.628 1514.3 255.246 1511.62 253.413C1508.94 251.459 1505.59 250.482 1501.57 250.482C1496.7 250.482 1492.37 251.825 1488.59 254.513C1484.94 257.078 1481.77 260.376 1479.09 264.407C1476.41 268.316 1474.22 272.591 1472.51 277.233C1470.81 281.875 1469.53 286.15 1468.67 290.059L1522.77 284.929V280.898ZM1516.92 168.761L1488.41 131.382L1466.11 166.929L1425.91 149.705C1428.22 145.919 1431.08 141.521 1434.5 136.513C1437.91 131.382 1441.5 126.13 1445.28 120.755C1449.06 115.258 1452.89 109.822 1456.79 104.448C1460.69 98.9507 1464.41 93.8813 1467.94 89.2395L1505.59 88.873L1555.67 144.941L1516.92 168.761Z" fill="white"/>
<path d="M1383.32 341.363L1375.64 422.717L1221.75 434.81L1227.6 173.158H1322.64L1309.12 341.363H1383.32Z" fill="white"/>
<path d="M1210.24 298.122C1210.24 309.238 1208.96 319.987 1206.4 330.37C1203.84 340.631 1200.13 350.281 1195.25 359.32C1190.5 368.36 1184.65 376.666 1177.71 384.24C1170.88 391.691 1163.15 398.104 1154.5 403.479C1145.97 408.853 1136.65 413.068 1126.53 416.122C1116.42 419.053 1105.7 420.519 1094.37 420.519C1083.4 420.519 1072.92 419.114 1062.93 416.305C1053.06 413.495 1043.8 409.586 1035.15 404.578C1026.5 399.448 1018.64 393.34 1011.57 386.255C1004.63 379.048 998.656 371.108 993.66 362.435C988.786 353.64 984.948 344.234 982.146 334.218C979.465 324.201 978.125 313.757 978.125 302.886C978.125 292.258 979.404 281.875 981.963 271.736C984.522 261.476 988.177 251.826 992.929 242.786C997.803 233.747 1003.65 225.44 1010.47 217.867C1017.3 210.293 1024.91 203.758 1033.32 198.261C1041.85 192.764 1051.05 188.489 1060.92 185.435C1070.79 182.381 1081.21 180.854 1092.17 180.854C1109.84 180.854 1125.92 183.603 1140.42 189.1C1155.04 194.597 1167.47 202.476 1177.71 212.736C1188.06 222.875 1196.05 235.213 1201.65 249.749C1207.38 264.163 1210.24 280.287 1210.24 298.122ZM1129.09 302.886C1129.09 297.633 1128.3 292.564 1126.72 287.677C1125.25 282.669 1123.06 278.272 1120.14 274.485C1117.21 270.576 1113.56 267.461 1109.17 265.14C1104.9 262.697 1099.97 261.476 1094.37 261.476C1088.64 261.476 1083.52 262.514 1079.01 264.591C1074.5 266.667 1070.61 269.538 1067.32 273.202C1064.15 276.745 1061.71 280.959 1060 285.845C1058.3 290.609 1057.45 295.679 1057.45 301.053C1057.45 306.184 1058.18 311.314 1059.64 316.445C1061.1 321.575 1063.29 326.217 1066.22 330.37C1069.14 334.523 1072.74 337.882 1077 340.448C1081.39 343.013 1086.45 344.296 1092.17 344.296C1097.9 344.296 1103.02 343.196 1107.52 340.997C1112.15 338.676 1116.05 335.623 1119.22 331.836C1122.39 327.927 1124.83 323.468 1126.53 318.46C1128.24 313.452 1129.09 308.26 1129.09 302.886Z" fill="white"/>
<path d="M971.545 261.842C971.545 271.37 970.692 280.043 968.987 287.86C967.403 295.556 964.844 302.641 961.31 309.115C957.777 315.589 953.208 321.575 947.603 327.072C941.998 332.568 935.235 337.821 927.315 342.829L970.814 420.519L888.569 436.643L860.423 358.587L837.759 359.32L834.469 435.544H755.879C756.489 407.693 757.037 379.964 757.524 352.357C758.134 324.751 758.804 297.022 759.535 269.171C759.778 255.123 760.022 241.198 760.266 227.395C760.51 213.591 760.997 199.666 761.728 185.618C770.257 182.442 778.664 179.816 786.95 177.739C795.235 175.663 803.521 174.075 811.806 172.975C820.214 171.754 828.682 170.96 837.211 170.593C845.862 170.105 854.696 169.86 863.712 169.86C877.603 169.86 891.006 171.815 903.921 175.724C916.959 179.51 928.473 185.252 938.464 192.947C948.456 200.643 956.436 210.232 962.407 221.714C968.499 233.197 971.545 246.573 971.545 261.842ZM889.665 267.705C889.665 262.575 888.934 257.872 887.472 253.596C886.132 249.321 884.06 245.656 881.258 242.603C878.577 239.427 875.166 236.984 871.023 235.273C867.002 233.441 862.25 232.525 856.767 232.525C854.33 232.525 851.954 232.708 849.639 233.075C847.324 233.319 845.07 233.746 842.877 234.357L839.953 302.519H844.339C849.578 302.519 854.879 301.847 860.24 300.503C865.723 299.16 870.597 297.083 874.861 294.273C879.248 291.464 882.781 287.86 885.462 283.463C888.264 279.065 889.665 273.813 889.665 267.705Z" fill="white"/>
<path fill-rule="evenodd" clip-rule="evenodd" d="M646.471 243.719C583.16 134.06 416.818 51.35 253.257 145.782C89.6953 240.214 77.4 426.061 140.711 535.719C202.418 642.599 421.69 755.762 588.669 841.937C622.713 859.507 654.584 875.955 682.503 890.999C683.429 873.359 684.552 854.067 685.749 833.501C696.534 648.211 713.338 359.536 646.471 243.719ZM507.132 336.379C541.65 396.166 521.166 472.614 461.379 507.132C401.593 541.65 325.144 521.166 290.626 461.379C256.108 401.593 276.593 325.144 336.379 290.626C396.166 256.108 472.615 276.593 507.132 336.379Z" fill="white"/>
<path fill-rule="evenodd" clip-rule="evenodd" d="M386.88 598.389L616.879 598.389L616.879 538.389L596.879 538.388L596.879 578.389L366.878 578.388V721.97C373.343 725.795 379.857 729.602 386.409 733.389L386.879 733.388L386.88 598.389Z" fill="black"/>
<path fill-rule="evenodd" clip-rule="evenodd" d="M606.879 529.39C626.209 529.39 641.879 513.719 641.879 494.39C641.879 475.06 626.209 459.39 606.879 459.39C587.549 459.39 571.879 475.06 571.879 494.39C571.879 513.719 587.549 529.39 606.879 529.39ZM622.788 494.39C622.788 503.176 615.665 510.299 606.879 510.299C598.093 510.299 590.97 503.176 590.97 494.39C590.97 485.604 598.093 478.481 606.879 478.481C615.665 478.481 622.788 485.604 622.788 494.39Z" fill="black"/>
</svg>
