<svg width="22" height="28" viewBox="0 0 22 28" fill="none" xmlns="http://www.w3.org/2000/svg">
<path d="M11 21.3333C11.7293 21.3333 12.4288 21.0524 12.9445 20.5523C13.4603 20.0522 13.75 19.3739 13.75 18.6667C13.75 17.9594 13.4603 17.2811 12.9445 16.781C12.4288 16.281 11.7293 16 11 16C10.2707 16 9.57118 16.281 9.05546 16.781C8.53973 17.2811 8.25 17.9594 8.25 18.6667C8.25 19.3739 8.53973 20.0522 9.05546 20.5523C9.57118 21.0524 10.2707 21.3333 11 21.3333ZM19.25 9.33333C19.9793 9.33333 20.6788 9.61429 21.1945 10.1144C21.7103 10.6145 22 11.2928 22 12V25.3333C22 26.0406 21.7103 26.7189 21.1945 27.219C20.6788 27.719 19.9793 28 19.25 28H2.75C2.02065 28 1.32118 27.719 0.805456 27.219C0.289731 26.7189 0 26.0406 0 25.3333V12C0 11.2928 0.289731 10.6145 0.805456 10.1144C1.32118 9.61429 2.02065 9.33333 2.75 9.33333H4.125V6.66667C4.125 4.89856 4.84933 3.20286 6.13864 1.95262C7.42795 0.702379 9.17664 0 11 0C11.9028 0 12.7968 0.172438 13.6309 0.50747C14.4651 0.842501 15.223 1.33356 15.8614 1.95262C16.4998 2.57168 17.0062 3.30661 17.3517 4.11544C17.6972 4.92428 17.875 5.79119 17.875 6.66667V9.33333H19.25ZM11 2.66667C9.90598 2.66667 8.85677 3.08809 8.08318 3.83824C7.3096 4.58839 6.875 5.6058 6.875 6.66667V9.33333H15.125V6.66667C15.125 5.6058 14.6904 4.58839 13.9168 3.83824C13.1432 3.08809 12.094 2.66667 11 2.66667Z" fill="#0DA58C"/>
</svg>
