<svg width="30" height="30" viewBox="0 0 30 30" fill="none" xmlns="http://www.w3.org/2000/svg">
<path d="M22.7808 16.4163C23.8222 15.3975 25.5108 15.3975 26.5522 16.4163L29.2191 19.0253C30.2602 20.044 30.2604 21.6961 29.2191 22.7147L22.5523 29.2357C22.0522 29.725 21.3738 30 20.6666 30H17.9996C16.5271 29.9998 15.3337 28.8316 15.3337 27.391V24.783C15.3337 24.0913 15.614 23.4274 16.1139 22.9383L22.7808 16.4163Z" fill="#0DA58C"/>
<path fill-rule="evenodd" clip-rule="evenodd" d="M16.0007 0C20.0503 0.00043009 23.3335 3.21274 23.3335 7.17447C23.3333 11.0011 20.27 14.1265 16.4118 14.3356C16.9753 14.814 17.3336 15.5174 17.3336 16.3045C17.3336 17.7452 16.1394 18.9135 14.6667 18.9135C9.20822 18.9135 5.33388 22.6974 5.33388 26.7395C5.3337 28.1801 4.13956 29.3475 2.66694 29.3475C1.19432 29.3475 0.000175713 28.1801 0 26.7395C0 19.7572 5.97988 14.4507 13.112 13.77C10.4979 12.6733 8.66695 10.1331 8.66682 7.17447C8.66682 3.21247 11.9506 0 16.0007 0ZM16.0007 5.21797C14.8961 5.21797 14.0007 6.09393 14.0007 7.17447C14.0009 8.25487 14.8962 9.13097 16.0007 9.13097C17.1047 9.13054 18.0004 8.25461 18.0006 7.17447C18.0006 6.09419 17.1048 5.2184 16.0007 5.21797Z" fill="#0DA58C"/>
</svg>
