<svg width="33" height="21" viewBox="0 0 33 21" fill="none" xmlns="http://www.w3.org/2000/svg">
<path d="M16.5 19.3846C22.8707 19.3846 28.3813 15.7985 31.2162 10.5C28.3813 5.20154 22.8707 1.61538 16.5 1.61538C10.1293 1.61538 4.61873 5.20154 1.78378 10.5C4.61873 15.7985 10.1293 19.3846 16.5 19.3846ZM16.5 0C23.7625 0 30.0376 4.28077 33 10.5C30.0376 16.7192 23.7625 21 16.5 21C9.23745 21 2.96236 16.7192 0 10.5C2.96236 4.28077 9.23745 0 16.5 0ZM16.5 3.23077C20.4817 3.23077 23.667 6.46154 23.667 10.5C23.667 14.5385 20.4817 17.7692 16.5 17.7692C12.5183 17.7692 9.33301 14.5385 9.33301 10.5C9.33301 6.46154 12.5183 3.23077 16.5 3.23077ZM16.5 4.84615C15.0216 4.84615 13.6037 5.44183 12.5584 6.50213C11.513 7.56243 10.9257 9.00051 10.9257 10.5C10.9257 11.9995 11.513 13.4376 12.5584 14.4979C13.6037 15.5582 15.0216 16.1538 16.5 16.1538C17.9784 16.1538 19.3963 15.5582 20.4416 14.4979C21.487 13.4376 22.0743 11.9995 22.0743 10.5C22.0743 9.00051 21.487 7.56243 20.4416 6.50213C19.3963 5.44183 17.9784 4.84615 16.5 4.84615Z" fill="#07594B"/>
</svg>
