<svg width="190" height="190" viewBox="0 0 190 190" fill="none" xmlns="http://www.w3.org/2000/svg">
<path d="M190 95C190 92.4804 188.999 90.0641 187.218 88.2825C185.436 86.5009 183.02 85.5 180.5 85.5C177.98 85.5 175.564 86.5009 173.782 88.2825C172.001 90.0641 171 92.4804 171 95H190ZM95 19C97.5196 19 99.9359 17.9991 101.718 16.2175C103.499 14.4359 104.5 12.0196 104.5 9.5C104.5 6.98044 103.499 4.56408 101.718 2.78249C99.9359 1.00089 97.5196 0 95 0V19ZM166.25 171H23.75V190H166.25V171ZM19 166.25V23.75H0V166.25H19ZM171 95V166.25H190V95H171ZM23.75 19H95V0H23.75V19ZM23.75 171C22.4902 171 21.282 170.5 20.3912 169.609C19.5004 168.718 19 167.51 19 166.25H0C0 172.549 2.50222 178.59 6.95621 183.044C11.4102 187.498 17.4511 190 23.75 190V171ZM166.25 190C172.549 190 178.59 187.498 183.044 183.044C187.498 178.59 190 172.549 190 166.25H171C171 167.51 170.5 168.718 169.609 169.609C168.718 170.5 167.51 171 166.25 171V190ZM19 23.75C19 22.4902 19.5004 21.282 20.3912 20.3912C21.282 19.5004 22.4902 19 23.75 19V0C17.4511 0 11.4102 2.50222 6.95621 6.95621C2.50222 11.4102 0 17.4511 0 23.75H19Z" fill="#E6E6E6"/>
<path d="M9.5 147.25L60.2918 100.69C62.0037 99.1215 64.2311 98.2338 66.553 98.1953C68.8749 98.1568 71.1304 98.9701 72.8935 100.481L133 152M114 128.25L136.672 105.578C138.289 103.96 140.436 102.98 142.717 102.818C144.999 102.655 147.263 103.322 149.093 104.695L180.5 128.25M133 42.75L156.75 66.5M156.75 66.5L180.5 42.75M156.75 66.5V9.5" stroke="#E6E6E6" stroke-width="5.33333" stroke-linecap="round" stroke-linejoin="round"/>
</svg>
