<svg width="30" height="30" viewBox="0 0 30 30" fill="none" xmlns="http://www.w3.org/2000/svg">
<path d="M9 0C8.21667 0 7.4093 0.347755 6.84375 1.05469C6.2782 1.76162 6 2.77083 6 3.75V5.625H9V3.75H27V16.875H25.5V20.625H27C27.7833 20.625 28.5907 20.2772 29.1563 19.5703C29.7218 18.8634 30 17.8542 30 16.875V3.75C30 2.77083 29.7218 1.76162 29.1563 1.05469C28.5907 0.347755 27.7833 0 27 0H9ZM3 7.5C2.21667 7.5 1.4093 7.84776 0.84375 8.55469C0.278204 9.26162 0 10.2708 0 11.25V26.25C0 27.2292 0.278204 28.2384 0.84375 28.9453C1.4093 29.6522 2.21667 30 3 30H21C21.7833 30 22.5907 29.6522 23.1562 28.9453C23.7218 28.2384 24 27.2292 24 26.25V11.25C24 10.2708 23.7218 9.26162 23.1562 8.55469C22.5907 7.84776 21.7833 7.5 21 7.5H3ZM3 11.25H21V26.25H3V11.25Z" fill="white"/>
</svg>
