<svg width="44" height="45" viewBox="0 0 44 45" fill="none" xmlns="http://www.w3.org/2000/svg">
<path d="M4.97006 3.78634C7.96321 0.912814 11.5988 -0.130222 15.1263 0.451382C17.6629 0.869711 20.0236 2.10664 21.9974 3.91037C23.9604 2.11283 26.303 0.88266 28.8304 0.46896C32.3438 -0.106011 35.9563 0.941985 38.9769 3.76291C44.9072 9.30137 45.5611 18.586 41.0638 25.0891C39.345 27.5742 36.0039 31.2906 32.8138 34.674C29.5805 38.1033 26.3561 41.3436 24.766 42.926C24.618 43.0731 24.4018 43.2901 24.1927 43.467C23.9593 43.6645 23.5836 43.9453 23.0579 44.1213C22.4498 44.3248 21.7962 44.3505 21.1761 44.1975L20.9134 44.1213C20.3882 43.9454 20.0133 43.6646 19.7796 43.467C19.57 43.2897 19.3546 43.0726 19.2064 42.925C17.6161 41.3425 14.3906 38.103 11.1576 34.674C7.96749 31.2907 4.62728 27.5742 2.90853 25.0891C-1.60769 18.5588 -0.822187 9.3473 4.97006 3.78634ZM14.3128 5.384C12.3874 5.06659 10.3234 5.57692 8.43197 7.39279C4.45458 11.2114 3.86495 17.6822 7.02084 22.2453C8.49154 24.3717 11.572 27.8247 14.7962 31.2444C17.5331 34.1471 20.2723 36.9183 21.9857 38.633C23.699 36.9183 26.439 34.1474 29.1761 31.2444C32.4004 27.8247 35.4808 24.3717 36.9515 22.2453C40.126 17.6551 39.5717 11.1596 35.5648 7.4172C33.6168 5.5979 31.5433 5.09176 29.638 5.40353C27.6681 5.72598 25.623 6.97141 23.9886 9.11837C23.5158 9.73949 22.78 10.1047 21.9994 10.1047C21.2188 10.1047 20.4829 9.73949 20.0101 9.11837C18.3792 6.97598 16.3069 5.71285 14.3128 5.384Z" fill="black"/>
</svg>
