<svg width="54" height="50" viewBox="0 0 54 50" fill="none" xmlns="http://www.w3.org/2000/svg">
<path d="M25.6616 8.97009C26.2543 8.33938 27.2166 8.33922 27.811 8.97009L45.8081 28.0834C46.0937 28.3851 46.2534 28.797 46.2534 29.2269V43.1674C46.2533 46.4383 43.7566 49.0901 40.6772 49.0902H31.7651V34.431H21.7046V49.0902H12.7934C9.71395 49.0902 7.21642 46.4384 7.21628 43.1674V29.2269C7.21628 28.7971 7.37753 28.3851 7.6616 28.0834L25.6616 8.97009Z" fill="black"/>
<path d="M21.3696 2.40173C24.3755 -0.796734 29.6127 -0.802459 32.6255 2.39587L38.7192 8.86853V5.40173C38.7192 3.58604 40.105 2.11462 41.813 2.11462C43.5247 2.11476 44.9096 3.58613 44.9096 5.40173V15.4437L53.0942 24.1361C54.3025 25.4218 54.3023 27.502 53.0942 28.7855C52.4892 29.4279 51.6964 29.7484 50.9038 29.7484C50.1129 29.7484 49.3221 29.4282 48.7153 28.7855L28.2505 7.04821C27.5874 6.34601 26.4121 6.34587 25.7456 7.05017L5.28464 28.7855C4.07656 30.0708 2.11425 30.0708 0.905738 28.7855C-0.30182 27.5018 -0.302005 25.4216 0.905738 24.1361L21.3696 2.40173Z" fill="black"/>
</svg>
