<svg width="38" height="59" viewBox="0 0 38 59" fill="none" xmlns="http://www.w3.org/2000/svg">
<path d="M18.9936 0.296387C8.50202 0.296387 0 8.67686 0 19.0149C0 22.2264 0.818855 25.2459 2.26465 27.8816C4.67643 32.2957 12.9226 44.9048 16.8697 50.8863C18.7761 52.6711 20.6441 51.2957 21.1239 50.8863C25.0455 44.9176 33.234 32.3597 35.665 28.0095C37.1556 25.3418 38 22.2711 38 19.0149C37.9872 8.67686 29.4852 0.296387 18.9936 0.296387ZM32.6966 26.7556C30.3872 30.658 22.237 43.6637 19.7293 47.662C19.2047 47.8476 18.7121 47.822 18.2579 47.662C15.7694 43.6765 7.67037 30.7156 5.34815 26.858C3.95993 24.5486 3.16027 21.8553 3.16027 18.9829C3.16027 10.4105 10.2485 3.45666 18.9872 3.45666C27.7259 3.45666 34.8141 10.4041 34.8141 18.9829C34.8205 21.8169 34.0465 24.4718 32.6966 26.7556Z" fill="black"/>
<path d="M18.9938 27.2354C14.4645 27.2354 10.7796 23.5506 10.7796 19.0213C10.7796 14.492 14.4645 10.8071 18.9938 10.8071C23.5231 10.8071 27.2079 14.492 27.2079 19.0213C27.2079 23.5506 23.5231 27.2354 18.9938 27.2354ZM18.9938 13.8842C16.1598 13.8842 13.8567 16.1873 13.8567 19.0213C13.8567 21.8553 16.1598 24.1583 18.9938 24.1583C21.8278 24.1583 24.1308 21.8553 24.1308 19.0213C24.1308 16.1873 21.8278 13.8842 18.9938 13.8842ZM18.9106 58.7038C8.45741 58.7038 0.575928 54.891 0.575928 49.8307C0.575928 46.8815 3.28839 44.2522 8.02239 42.6209C8.75808 42.365 9.56414 42.7553 9.81364 43.491C10.0695 44.2267 9.67929 45.0327 8.9436 45.2822C5.52105 46.4657 3.39714 48.2058 3.39714 49.8307C3.39714 52.6903 9.76886 55.8825 18.9106 55.8825C28.0524 55.8825 34.4241 52.6903 34.4241 49.8307C34.4241 48.2058 32.2938 46.4657 28.8712 45.2822C28.1355 45.0263 27.7453 44.2267 28.0012 43.491C28.2571 42.7553 29.0567 42.365 29.7924 42.6209C34.5264 44.2522 37.2453 46.8879 37.2453 49.8371C37.2453 54.8846 29.3638 58.7038 18.9106 58.7038Z" fill="black"/>
</svg>
