<svg width="54" height="55" viewBox="0 0 54 55" fill="none" xmlns="http://www.w3.org/2000/svg">
<path d="M21.5928 0.090332C26.0462 0.090332 29.6902 3.73512 29.6904 8.18994V16.2905C29.6903 17.7754 28.4757 18.9907 26.9912 18.9907C25.5069 18.9906 24.2921 17.7754 24.292 16.2905V8.18994C24.2918 6.70512 23.0772 5.49072 21.5928 5.49072H8.09766C6.61326 5.49072 5.39865 6.70512 5.39844 8.18994V45.9907C5.39865 47.4755 6.61326 48.6899 8.09766 48.6899H21.5928C23.0772 48.6899 24.2918 47.4755 24.292 45.9907V37.8901C24.2921 36.4053 25.5069 35.1901 26.9912 35.1899C28.4757 35.1899 29.6903 36.4052 29.6904 37.8901V45.9907C29.6902 50.4455 26.0462 54.0903 21.5928 54.0903H8.09766C3.6442 54.0903 0.000212551 50.4455 0 45.9907V8.18994C0.000213075 3.73512 3.6442 0.090332 8.09766 0.090332H21.5928Z" fill="black"/>
<path d="M38.6309 13.9741C39.6768 12.9279 41.3984 12.9279 42.4443 13.9741L53.2402 24.7739C53.3752 24.8752 53.4769 25.0442 53.5781 25.1792C53.6118 25.2465 53.6451 25.314 53.6787 25.3813C53.7124 25.4825 53.7807 25.5498 53.8145 25.6509C53.8482 25.7521 53.8481 25.8201 53.8818 25.9214C53.9156 26.0225 53.9492 26.0903 53.9492 26.1577C54.0166 26.4951 54.0166 26.8662 53.9492 27.2036C53.9492 27.3048 53.9155 27.3725 53.8818 27.4399C53.8481 27.5412 53.814 27.6092 53.7803 27.7104C53.7465 27.8115 53.6792 27.8789 53.6455 27.98C53.6118 28.0474 53.5776 28.1147 53.5439 28.1821V28.2163C53.5102 28.25 53.4761 28.2841 53.4424 28.3179C53.3414 28.419 53.2739 28.5205 53.2402 28.5542L42.4443 39.354C41.9045 39.8603 41.229 40.1304 40.5205 40.1304C39.8121 40.1303 39.1374 39.8938 38.5977 39.354C37.5518 38.3078 37.5519 36.5868 38.5977 35.5405L44.7715 29.3638H13.4951C12.0108 29.3635 10.7969 28.1484 10.7969 26.6636C10.797 25.1788 12.0108 23.9636 13.4951 23.9634H44.8057L38.6309 17.7876C37.5853 16.7415 37.5854 15.0203 38.6309 13.9741Z" fill="black"/>
</svg>
