<svg width="28" height="28" viewBox="0 0 28 28" fill="none" xmlns="http://www.w3.org/2000/svg">
<path fill-rule="evenodd" clip-rule="evenodd" d="M16.3538 5.54363e-08C18.1993 0.000240056 20.0184 0.438997 21.6611 1.28012C23.3038 2.12124 24.7231 3.34064 25.8021 4.83785C26.881 6.33505 27.5888 8.0672 27.8669 9.89156C28.1451 11.7159 27.9858 13.5803 27.402 15.331C26.8183 17.0817 25.8269 18.6686 24.5095 19.961C23.1921 21.2535 21.5865 22.2144 19.8249 22.7645C18.0633 23.3147 16.1961 23.4385 14.3773 23.1256C12.5585 22.8127 10.84 22.0721 9.3636 20.9648C9.27575 21.2223 9.13034 21.4631 8.92435 21.6676L3.10805 27.4835C2.76242 27.8184 2.29896 28.0039 1.81773 27.9999C1.3365 27.996 0.876133 27.8029 0.536043 27.4625C0.195951 27.122 0.0034256 26.6614 4.57764e-05 26.1802C-0.00333405 25.699 0.182699 25.2358 0.517975 24.8906L6.33428 19.0746C6.53131 18.8768 6.77128 18.727 7.03557 18.6369C5.73726 16.9065 4.94654 14.8487 4.75205 12.6942C4.55755 10.5397 4.96696 8.37362 5.93439 6.4387C6.90182 4.50379 8.38905 2.87652 10.2294 1.73929C12.0697 0.602052 14.1904 -0.00021097 16.3538 5.54363e-08ZM25.0631 11.6471C25.0631 10.5035 24.8378 9.37099 24.4001 8.31439C23.9624 7.25778 23.3209 6.29773 22.5122 5.48904C21.7034 4.68035 20.7433 4.03886 19.6867 3.6012C18.63 3.16354 17.4975 2.93828 16.3538 2.93828C15.21 2.93828 14.0775 3.16354 13.0209 3.6012C11.9642 4.03886 11.0041 4.68035 10.1954 5.48904C9.38662 6.29773 8.7451 7.25778 8.30742 8.31439C7.86973 9.37099 7.64446 10.5035 7.64446 11.6471C7.64446 13.9568 8.56204 16.172 10.1954 17.8052C11.8287 19.4384 14.0439 20.3559 16.3538 20.3559C18.6636 20.3559 20.8789 19.4384 22.5122 17.8052C24.1455 16.172 25.0631 13.9568 25.0631 11.6471Z" fill="white"/>
</svg>
