<svg width="40" height="40" viewBox="0 0 40 40" fill="none" xmlns="http://www.w3.org/2000/svg">
<path d="M15.9955 0C19.2944 0.000158403 21.9931 2.70021 21.9931 6.00011V12.0002C21.993 13.1 21.0938 14.0001 19.9944 14.0003C18.8948 14.0003 17.9951 13.1001 17.9949 12.0002V6.00011C17.9949 4.90021 17.095 4.00023 15.9955 4.00007H5.99832C4.89864 4.00007 3.99888 4.90011 3.99888 6.00011V33.9999C3.99888 35.0999 4.89864 35.9999 5.99832 35.9999H15.9955C17.095 35.9998 17.9949 35.0998 17.9949 33.9999V27.9998C17.9951 26.8999 18.8948 25.9997 19.9944 25.9997C21.0938 25.9999 21.993 26.9 21.9931 27.9998V33.9999C21.9931 37.2998 19.2944 39.9998 15.9955 40H5.99832C2.6993 40 0 37.2999 0 33.9999V6.00011C0 2.70011 2.6993 0 5.99832 0H15.9955Z" fill="#085E50"/>
<path d="M28.6159 10.5745C29.3905 9.79963 30.6654 9.79982 31.4401 10.5745L39.4379 18.5747C39.5379 18.6497 39.6129 18.775 39.6878 18.875C39.7128 18.925 39.7379 18.9751 39.7629 19.0251C39.7879 19.1 39.8377 19.15 39.8627 19.2248C39.8877 19.2998 39.8881 19.3497 39.913 19.4246C39.938 19.4996 39.9625 19.5502 39.9625 19.6002C40.0125 19.8501 40.0125 20.1251 39.9625 20.375C39.9625 20.4499 39.938 20.5 39.913 20.5499C39.888 20.6249 39.8629 20.6748 39.8379 20.7496C39.8129 20.8246 39.7631 20.8751 39.7381 20.9501C39.7132 20.9999 39.688 21.0497 39.6631 21.0995V21.125C39.6381 21.15 39.613 21.1751 39.588 21.2001C39.5131 21.2751 39.4629 21.35 39.4379 21.375L31.4401 29.3752C31.0403 29.75 30.5403 29.9495 30.0156 29.9495C29.4909 29.9495 28.9909 29.7751 28.5911 29.3752C27.8164 28.6002 27.8165 27.3251 28.5911 26.55L33.1649 21.9749H9.99646C8.89694 21.9747 7.99775 21.0747 7.99775 19.9749C7.99776 18.875 8.89695 17.975 9.99646 17.9748H33.1897L28.6159 13.3997C27.8414 12.6246 27.8412 11.3494 28.6159 10.5745Z" fill="#085E50"/>
</svg>
