<svg width="54" height="55" viewBox="0 0 54 55" fill="none" xmlns="http://www.w3.org/2000/svg">
<path d="M26.9999 13.6427C24.3402 13.6427 21.7403 14.4314 19.5288 15.909C17.3174 17.3866 15.5938 19.4868 14.576 21.9441C13.5581 24.4013 13.2918 27.1051 13.8107 29.7137C14.3296 32.3223 15.6104 34.7184 17.491 36.599C19.3717 38.4797 21.7678 39.7605 24.3764 40.2794C26.985 40.7982 29.6888 40.5319 32.146 39.5141C34.6033 38.4963 36.7035 36.7727 38.1811 34.5613C39.6588 32.3498 40.4474 29.7499 40.4474 27.0902C40.4434 23.5249 39.0253 20.1069 36.5043 17.5858C33.9833 15.0648 30.5652 13.6467 26.9999 13.6427ZM26.9999 38.4689C24.7494 38.4689 22.5494 37.8015 20.6782 36.5512C18.807 35.3009 17.3486 33.5238 16.4873 31.4446C15.6261 29.3655 15.4008 27.0776 15.8398 24.8703C16.2789 22.6631 17.3626 20.6356 18.9539 19.0443C20.5453 17.4529 22.5728 16.3692 24.78 15.9302C26.9873 15.4911 29.2751 15.7165 31.3543 16.5777C33.4335 17.4389 35.2106 18.8973 36.4609 20.7686C37.7112 22.6398 38.3786 24.8397 38.3786 27.0902C38.3752 30.107 37.1753 32.9992 35.0421 35.1324C32.9089 37.2656 30.0167 38.4655 26.9999 38.4689ZM53.7931 33.5051L49.7318 28.0908C49.7506 27.4274 49.7368 26.5749 49.726 26.0972L53.7913 20.6769C53.8856 20.5513 53.95 20.4058 53.9796 20.2516C54.0092 20.0973 54.0034 19.9384 53.9624 19.7867C53.3399 17.4794 52.4223 15.2621 51.2324 13.1896C51.1541 13.0533 51.0458 12.9367 50.9158 12.8485C50.7857 12.7603 50.6372 12.7029 50.4816 12.6807L43.7871 11.7247C43.3349 11.2311 42.8586 10.7548 42.3651 10.3028L41.4094 3.6112C41.3872 3.4557 41.3299 3.3073 41.2418 3.17725C41.1537 3.0472 41.0372 2.93893 40.901 2.86063C38.8292 1.66936 36.6124 0.750304 34.3055 0.126199C34.1538 0.0851698 33.9948 0.0792542 33.8405 0.108902C33.6861 0.138549 33.5406 0.202979 33.4149 0.297298L28.0053 4.35494C27.3365 4.32565 26.663 4.32565 25.9942 4.35494L20.5867 0.299067C20.4611 0.204828 20.3156 0.140445 20.1614 0.110799C20.0071 0.0811526 19.8481 0.0870233 19.6965 0.127965C17.3891 0.750463 15.1717 1.66809 13.0991 2.85811C12.9629 2.93638 12.8463 3.04466 12.7581 3.17473C12.6699 3.3048 12.6126 3.45325 12.5904 3.6088L11.6345 10.3031C11.1409 10.7553 10.6646 11.2316 10.2124 11.7252L3.52083 12.6809C3.36534 12.7031 3.21695 12.7605 3.08691 12.8486C2.95687 12.9367 2.84858 13.0532 2.77026 13.1894C1.57895 15.2612 0.659884 17.478 0.0358198 19.785C-0.00517152 19.9366 -0.0110676 20.0957 0.0185792 20.25C0.0482259 20.4043 0.112636 20.5499 0.206922 20.6756L4.26824 26.0899C4.24942 26.7533 4.26318 27.6058 4.27404 28.0835L0.208688 33.5037C0.114451 33.6294 0.0500676 33.7748 0.0204219 33.9291C-0.00922366 34.0833 -0.00335271 34.2423 0.0375891 34.3939C0.660105 36.7012 1.57768 38.9186 2.76761 40.9911C2.84588 41.1273 2.95418 41.244 3.08428 41.3322C3.21437 41.4203 3.36285 41.4777 3.51843 41.4999L10.2129 42.4559C10.6651 42.9495 11.1414 43.4258 11.6349 43.8779L12.5906 50.5695C12.6128 50.725 12.6701 50.8734 12.7582 51.0034C12.8463 51.1335 12.9628 51.2417 13.099 51.32C15.1708 52.5113 17.3876 53.4304 19.6945 54.0545C19.8462 54.0955 20.0052 54.1014 20.1595 54.0718C20.3139 54.0421 20.4594 53.9777 20.5851 53.8834L25.9947 49.8257C26.6635 49.855 27.337 49.855 28.0058 49.8257L33.4133 53.8816C33.5389 53.9759 33.6844 54.0403 33.8386 54.0699C33.9929 54.0996 34.1519 54.0937 34.3035 54.0527C36.6109 53.4302 38.8283 52.5126 40.9009 51.3226C41.0371 51.2443 41.1538 51.136 41.2419 51.0059C41.3301 50.8759 41.3874 50.7274 41.4096 50.5719L42.3664 43.8716C42.8488 43.4158 43.4417 42.8032 43.7719 42.4578L50.4792 41.4998C50.6347 41.4776 50.7831 41.4202 50.9131 41.3321C51.0431 41.244 51.1514 41.1275 51.2297 40.9913C52.4211 38.9195 53.3401 36.7027 53.9642 34.3957C54.0052 34.244 54.0111 34.085 53.9814 33.9307C53.9518 33.7764 53.8874 33.6308 53.7931 33.5051ZM49.6814 39.5239L43.1234 40.4606C42.8912 40.4938 42.6771 40.6049 42.5163 40.7758C42.5044 40.7884 41.3281 42.0371 40.7088 42.5854C40.5251 42.7481 40.4053 42.9708 40.3705 43.2137L39.4337 49.7738C37.7881 50.6764 36.0486 51.3962 34.2463 51.9202L28.947 47.9457C28.7508 47.7983 28.5086 47.7256 28.2636 47.7406C27.4222 47.7916 26.5784 47.7916 25.7369 47.7406C25.492 47.7257 25.2498 47.7984 25.0535 47.9457L19.7523 51.922C17.9505 51.3965 16.2115 50.6755 14.5666 49.7717L13.6299 43.2141C13.5952 42.9712 13.4753 42.7484 13.2916 42.5858C12.6605 42.0268 12.0638 41.4302 11.5048 40.7991C11.3422 40.6154 11.1195 40.4955 10.8766 40.4608L4.3165 39.524C3.41393 37.8784 2.69418 36.139 2.17011 34.3368L6.14493 29.0371C6.28566 28.8494 6.35841 28.6195 6.35126 28.385C6.35074 28.3677 6.29949 26.6528 6.34974 25.8272C6.36461 25.5823 6.29192 25.34 6.14466 25.1437L2.16833 19.8427C2.6938 18.0408 3.41486 16.3018 4.31863 14.6568L10.8764 13.7203C11.1193 13.6856 11.3419 13.5657 11.5046 13.3819C12.0635 12.7508 12.6601 12.1542 13.2912 11.5953C13.4749 11.4326 13.5948 11.2099 13.6295 10.967L14.5663 4.40684C16.2119 3.50426 17.9514 2.78451 19.7537 2.26046L25.053 6.23502C25.2494 6.38198 25.4915 6.45464 25.7364 6.44009C26.5779 6.38908 27.4217 6.38908 28.2631 6.44009C28.508 6.45475 28.7502 6.38208 28.9465 6.23502L34.2477 2.25869C36.0495 2.78414 37.7885 3.5052 39.4335 4.40898L40.3702 10.9666C40.4048 11.2095 40.5247 11.4322 40.7084 11.5949C41.3395 12.1539 41.9362 12.7505 42.4952 13.3815C42.6579 13.5652 42.8805 13.6851 43.1234 13.7198L49.6835 14.6566C50.5861 16.3022 51.3059 18.0417 51.8299 19.8439L47.8551 25.1436C47.7144 25.3313 47.6416 25.5612 47.6488 25.7957C47.6493 25.813 47.7006 27.5279 47.6503 28.3534C47.6354 28.5984 47.7081 28.8406 47.8554 29.037L51.8317 34.338C51.3062 36.1399 50.5852 37.8789 49.6814 39.5239Z" fill="black"/>
</svg>
