<svg width="400" height="400" viewBox="0 0 400 400" fill="none" xmlns="http://www.w3.org/2000/svg">
<path fill-rule="evenodd" clip-rule="evenodd" d="M325.457 169.5C364.969 169.5 400 201.228 400 241.501C400 281.774 364.968 313.5 325.457 313.5C316.395 313.5 317.175 323.179 317.175 329.5C317.118 374.225 278.231 399.949 234.348 400H82.8252C38.9429 399.949 0.055393 374.224 0 329.5V201.5C4.09454e-05 183.601 15.5693 169.5 33.1299 169.5H325.457ZM325.457 201.5C320.883 201.5 317.175 205.209 317.175 209.785V273.215C317.175 277.791 320.883 281.5 325.457 281.5C347.407 281.5 366.87 263.874 366.87 241.501C366.87 219.127 347.408 201.5 325.457 201.5Z" fill="black"/>
<path d="M81.9248 25C91.0735 25.0003 96.1205 32.7319 98.4893 41.5723C111.198 88.9999 180.712 79.0002 196.134 136.555C198.144 145.483 190.464 153 181.315 153C172.167 153 165.495 145.14 161.537 136.89C138.218 96.5005 85.7046 117.5 65.3594 41.5723C62.9905 32.7318 72.7759 25 81.9248 25Z" fill="black"/>
<path d="M119.925 0C129.073 0.000263073 134.12 7.73193 136.489 16.5723C149.198 63.9999 218.712 54.0002 234.134 111.555C236.144 120.483 228.464 128 219.315 128C210.167 128 203.495 120.14 199.537 111.89C176.218 71.5005 123.705 92.4999 103.359 16.5723C100.991 7.73179 110.776 3.22367e-06 119.925 0Z" fill="black"/>
</svg>
