<svg width="400" height="400" viewBox="0 0 400 400" fill="none" xmlns="http://www.w3.org/2000/svg">
<path d="M385.417 5.38747C380.951 2.55562 375.803 0.77542 370.422 0.202096C365.04 -0.371228 359.588 0.27974 354.542 2.09823C325.312 12.6007 266.292 30.2203 200 30.2203C133.708 30.2203 74.6667 12.6007 45.3958 2.09823C40.3455 0.28815 34.8934 -0.35813 29.5117 0.215341C24.1299 0.788812 18.9806 2.56475 14.5096 5.3894C10.0386 8.21406 6.38068 12.0023 3.85245 16.4261C1.32422 20.85 0.00190481 25.7761 0 30.7781V138.053C0 206.993 20.1042 272.027 56.625 321.135C94.4583 372.032 145.375 400 200 400C254.625 400 305.542 371.974 343.375 321.135C379.896 272.066 400 207.031 400 138.092V30.7781C399.99 25.7697 398.657 20.8393 396.115 16.4146C393.574 11.9899 389.902 8.20466 385.417 5.38747ZM95.8333 194.913C94.3737 196.429 92.6051 197.664 90.6285 198.549C88.6518 199.433 86.5058 199.949 84.313 200.068C79.8844 200.308 75.534 198.914 72.2188 196.192C68.9035 193.471 66.8951 189.644 66.6353 185.556C66.3755 181.467 67.8856 177.45 70.8333 174.389C82.8125 162.117 104.542 153.884 125 153.884C145.458 153.884 167.188 162.117 179.167 174.389C180.626 175.905 181.748 177.671 182.469 179.587C183.189 181.503 183.493 183.531 183.365 185.556C183.236 187.58 182.677 189.562 181.719 191.387C180.761 193.212 179.423 194.845 177.781 196.192C176.14 197.54 174.227 198.576 172.152 199.241C170.077 199.906 167.88 200.187 165.687 200.068C163.494 199.949 161.348 199.433 159.372 198.549C157.395 197.664 155.626 196.429 154.167 194.913C148.583 189.142 135.729 184.661 125 184.661C114.271 184.661 101.333 189.162 95.8333 194.913ZM284.354 286.973C274.009 298.307 261.107 307.416 246.551 313.666C231.995 319.915 216.136 323.153 200.083 323.153C184.031 323.153 168.172 319.915 153.615 313.666C139.059 307.416 126.158 298.307 115.812 286.973C114.234 285.464 113.006 283.673 112.205 281.709C111.404 279.746 111.046 277.652 111.153 275.556C111.26 273.461 111.831 271.407 112.829 269.522C113.828 267.638 115.233 265.961 116.959 264.596C118.685 263.231 120.695 262.207 122.865 261.585C125.036 260.964 127.321 260.759 129.58 260.983C131.84 261.207 134.026 261.855 136.004 262.888C137.982 263.92 139.711 265.316 141.083 266.988C148.297 274.939 157.311 281.334 167.49 285.721C177.669 290.109 188.766 292.383 200 292.383C211.234 292.383 222.331 290.109 232.51 285.721C242.689 281.334 251.703 274.939 258.917 266.988C261.787 263.884 265.876 261.959 270.283 261.638C274.69 261.317 279.054 262.626 282.417 265.276C285.779 267.926 287.863 271.701 288.211 275.77C288.558 279.839 287.141 283.869 284.271 286.973H284.354ZM327.792 196.202C326.16 197.55 324.257 198.588 322.19 199.257C320.124 199.926 317.935 200.212 315.749 200.1C313.563 199.987 311.422 199.478 309.449 198.601C307.476 197.724 305.709 196.497 304.25 194.99C298.667 189.219 285.812 184.738 275.083 184.738C264.354 184.738 251.417 189.239 245.917 194.99C244.452 196.511 242.676 197.75 240.693 198.637C238.709 199.525 236.555 200.042 234.355 200.161C232.154 200.28 229.95 199.997 227.867 199.33C225.785 198.662 223.866 197.622 222.219 196.269C220.572 194.916 219.229 193.278 218.268 191.446C217.308 189.614 216.747 187.626 216.618 185.594C216.489 183.562 216.795 181.527 217.519 179.604C218.242 177.682 219.368 175.91 220.833 174.389C232.729 162.117 254.458 153.884 275 153.884C295.542 153.884 317.188 162.117 329.167 174.389C330.636 175.901 331.766 177.666 332.493 179.584C333.22 181.501 333.528 183.532 333.4 185.56C333.272 187.588 332.711 189.572 331.748 191.399C330.786 193.225 329.441 194.858 327.792 196.202Z" fill="black"/>
</svg>
