<svg width="400" height="400" viewBox="0 0 400 400" fill="none" xmlns="http://www.w3.org/2000/svg">
<path d="M200 118.973C217.681 118.973 234.638 112.706 247.14 101.55C259.643 90.394 266.667 75.2634 266.667 59.4866C266.667 43.7098 259.643 28.5791 247.14 17.4232C234.638 6.26732 217.681 0 200 0C182.319 0 165.362 6.26732 152.86 17.4232C140.357 28.5791 133.333 43.7098 133.333 59.4866C133.333 75.2634 140.357 90.394 152.86 101.55C165.362 112.706 182.319 118.973 200 118.973ZM216.206 176.677C206.522 183.618 193.478 183.618 183.794 176.677C139.598 145 85.1161 124.401 24.9834 119.903C11.2134 118.872 0 130.37 0 144.428V311.635C0 325.694 11.2134 336.99 24.9834 338.02C85.1161 342.519 139.598 363.117 183.794 394.794C193.478 401.735 206.522 401.735 216.206 394.794C260.402 363.117 314.884 342.519 375.017 338.02C388.787 336.99 400 325.694 400 311.635V144.428C400 130.37 388.787 118.872 375.017 119.903C314.884 124.401 260.402 145 216.206 176.677Z" fill="black"/>
</svg>
