<svg width="400" height="400" viewBox="0 0 400 400" fill="none" xmlns="http://www.w3.org/2000/svg">
<path d="M223.705 6.07959C208.906 -2.02652 191.094 -2.02653 176.295 6.07958L5.06544 99.8715C1.94556 101.58 0 104.894 0 108.498C0 113.91 4.31236 118.297 9.63192 118.297H390.368C395.688 118.297 400 113.91 400 108.498C400 104.894 398.054 101.58 394.935 99.8715L223.705 6.07959ZM40.7692 149.597C35.2463 149.597 30.7692 154.074 30.7692 159.597C30.7692 203.568 30.7692 247.54 30.7692 291.511C30.7692 301.044 28.1357 310.385 23.1692 318.469L5.0884 347.897C1.76316 353.31 0 359.564 0 365.946C0 384.753 14.9878 400 33.4762 400H366.524C385.012 400 400 384.753 400 365.946C400 359.564 398.237 353.31 394.912 347.897L376.831 318.469C371.864 310.385 369.231 301.044 369.231 291.511C369.231 247.54 369.231 203.568 369.231 159.597C369.231 154.074 364.754 149.597 359.231 149.597H40.7692ZM92.3077 196.547C92.3077 187.904 99.1956 180.897 107.692 180.897C116.189 180.897 123.077 187.904 123.077 196.547V337.399C123.077 346.042 116.189 353.049 107.692 353.049C99.1956 353.049 92.3077 346.042 92.3077 337.399V196.547ZM184.615 196.548C184.615 187.904 191.503 180.897 200 180.897C208.497 180.897 215.385 187.904 215.385 196.548V337.399C215.385 346.042 208.497 353.049 200 353.049C191.503 353.049 184.615 346.042 184.615 337.399V196.548ZM276.923 196.547C276.923 187.904 283.811 180.897 292.307 180.897C300.804 180.897 307.692 187.904 307.692 196.547V337.399C307.692 346.043 300.804 353.049 292.307 353.049C283.811 353.049 276.923 346.043 276.923 337.399V196.547Z" fill="black"/>
</svg>
