<svg width="400" height="400" viewBox="0 0 400 400" fill="none" xmlns="http://www.w3.org/2000/svg">
<path fill-rule="evenodd" clip-rule="evenodd" d="M399.428 42.8571C399.817 38.1053 400.008 33.3392 400 28.5714C400 12.7918 387.208 2.3824e-06 371.428 2.3824e-06H350C312.903 -0.00618029 276.805 12.0215 247.126 34.2771C238.466 40.7711 230.488 48.0336 223.275 55.948C212.627 67.6296 190 103.5 190 150.831C176.935 113 140.397 81.9198 125.392 74.574C101.921 63.084 76.1317 57.1213 50 57.1429H28.5714C12.7918 57.1429 0 69.9348 0 85.7143C0 131.18 18.0612 174.783 50.2102 206.933C82.3593 239.082 125.963 257.143 171.428 257.143C175.373 257.143 178.571 260.341 178.571 264.286V378.571C178.571 384.255 180.829 389.705 184.848 393.724C188.866 397.742 194.317 400 200 400C205.683 400 211.133 397.742 215.152 393.724C219.171 389.705 221.428 384.255 221.428 378.571V207.143C221.428 203.198 224.626 200 228.571 200C271.568 200.006 312.998 183.855 344.645 154.748C376.292 125.641 395.845 85.7046 399.428 42.8571ZM228.571 157.143C225.173 157.143 222.52 154.185 223.064 150.831C227.769 121.837 242.279 95.2543 264.27 75.5889C287.848 54.5045 318.37 42.8511 350 42.8571C353.398 42.8571 356.051 45.815 355.506 49.169C350.802 78.1632 336.292 104.746 314.301 124.411C290.723 145.496 260.201 157.149 228.571 157.143ZM50 100C81.6299 99.9939 112.152 111.647 135.73 132.732C157.72 152.397 172.23 178.979 176.935 207.973C177.48 211.328 174.826 214.286 171.428 214.286C139.799 214.292 109.276 202.638 85.6987 181.554C63.708 161.889 49.198 135.306 44.493 106.312C43.9487 102.958 46.6018 100 50 100Z" fill="black"/>
</svg>
