<svg width="400" height="400" viewBox="0 0 400 400" fill="none" xmlns="http://www.w3.org/2000/svg">
<path d="M89.2207 247.944C90.9848 247.944 92.6852 248.652 93.9346 249.897L105.472 261.459C120.622 276.497 141.105 284.956 162.452 285.001C165.279 284.985 168.106 284.817 170.916 284.506C171.428 284.447 171.957 284.491 172.452 284.636C172.951 284.784 173.432 285.034 173.832 285.366C174.23 285.696 174.558 286.106 174.796 286.563C175.034 287.027 175.175 287.554 175.212 288.074V288.282C175.265 288.847 175.194 289.415 175.004 289.949C174.814 290.483 174.516 290.976 174.119 291.381L79.6377 386.303C75.3143 390.653 70.1717 394.109 64.5068 396.459C58.8387 398.809 52.7522 400.015 46.6162 400.001C28.7698 400 12.4462 389.998 4.03711 372.787C3.56097 371.815 3.13754 370.791 2.78711 369.767C-3.45551 351.572 1.0522 332.987 13.6729 320.365L84.5078 249.897C85.7566 248.653 87.4572 247.945 89.2207 247.944ZM320.162 0C323.42 -0.0179263 326.577 1.19723 328.991 3.38574C330.324 4.59784 331.393 6.07015 332.143 7.70898C332.891 9.34744 333.321 11.116 333.366 12.917C333.409 14.7214 333.073 16.5273 332.402 18.2031C331.731 19.8777 330.735 21.4069 329.459 22.6826L272.505 79.6094C268.531 83.5918 268.322 90.3155 272.297 94.2969C274.216 96.2136 276.824 97.2906 279.536 97.292C282.251 97.292 284.856 96.2148 286.776 94.2969L343.678 37.4219C344.969 36.1297 346.498 35.1018 348.185 34.4014C349.872 33.7008 351.695 33.3338 353.522 33.333C356.777 33.3174 359.914 34.5324 362.325 36.7188C363.66 37.9316 364.751 39.4013 365.502 41.042C366.249 42.6786 366.655 44.4514 366.7 46.25C366.743 48.0543 366.407 49.8604 365.736 51.5361C365.065 53.2096 364.068 54.7407 362.793 56.0156L305.865 112.943C301.882 116.926 301.665 123.673 305.657 127.656C307.576 129.569 310.187 130.651 312.896 130.651C315.602 130.648 318.194 129.566 320.11 127.656L377.325 70.4951C378.597 69.2246 380.11 68.2217 381.778 67.5518C383.453 66.881 385.261 66.5458 387.065 66.5889C388.87 66.6325 390.657 67.0612 392.299 67.8125C393.937 68.5634 395.411 69.6295 396.622 70.9639C401.455 76.2889 400.994 84.5608 395.919 89.6357L331.751 153.75C325.577 159.959 318.225 164.876 310.137 168.229C302.043 171.582 293.349 173.305 284.589 173.281H277.713C275.964 173.282 274.226 173.627 272.609 174.297C270.993 174.967 269.523 175.95 268.286 177.188L238.624 206.875C238.316 207.183 238.063 207.541 237.896 207.942C237.729 208.344 237.636 208.783 237.636 209.219C237.636 209.655 237.729 210.091 237.896 210.495C238.063 210.899 238.314 211.279 238.624 211.589L351.101 324.062C359.43 332.389 364.095 343.691 364.095 355.469C364.096 367.247 359.429 378.546 351.101 386.875C342.774 395.202 331.471 399.869 319.693 399.87C307.917 399.869 296.614 395.201 288.287 386.875L288.208 386.797L213.182 310.495C205.809 303.029 201.674 292.941 201.696 282.448V277.812C201.683 274.318 200.313 270.961 197.868 268.464L188.39 259.687C185.936 257.412 182.699 256.146 179.353 256.146C178.212 256.148 177.072 256.3 175.968 256.589C171.557 257.741 167.009 258.335 162.451 258.333C148.153 258.331 134.446 252.651 124.325 242.552L53.1006 171.354C23.8264 142.121 5.69791 102.442 5.78125 67.9424C5.78302 47.0548 12.5341 29.408 25.1572 16.9014C27.6603 14.422 31.0356 13.0138 34.5586 13.0205C38.0848 13.03 41.4668 14.4585 43.959 16.9531L188.363 161.354C188.672 161.663 189.052 161.916 189.457 162.083C189.859 162.249 190.298 162.318 190.733 162.318C191.169 162.317 191.607 162.25 192.01 162.083C192.411 161.917 192.768 161.66 193.076 161.354L222.765 131.667C224.003 130.43 224.985 128.96 225.655 127.344C226.326 125.724 226.672 123.967 226.671 122.214V115.365C226.647 106.606 228.373 97.9357 231.724 89.8438C235.077 81.749 239.99 74.3814 246.202 68.2031L310.318 4.08887C312.927 1.48059 316.474 0.00682864 320.162 0Z" fill="black"/>
</svg>
