<svg width="400" height="400" viewBox="0 0 400 400" fill="none" xmlns="http://www.w3.org/2000/svg">
<path d="M249.881 0C255.813 3.83117e-05 261.503 2.35736 265.698 6.55176C269.891 10.7464 272.25 16.4368 272.25 22.3691C272.25 28.3015 269.892 33.9909 265.699 38.1855C261.504 42.3798 255.813 44.7373 249.881 44.7373H51.9736C50.0544 44.7374 48.2134 45.4995 46.8564 46.8564C45.4995 48.2135 44.7374 50.0543 44.7373 51.9736V261.513C44.7375 274.643 60.7819 281.436 70.5869 272.457L127.478 220.358L127.896 219.983C132.264 216.166 137.85 214.011 143.664 213.915C149.666 213.816 155.498 215.915 160.056 219.817L298.806 338.626C298.976 338.772 299.892 339.505 301.315 340.644C304.968 343.566 311.961 349.161 318.272 354.373C318.968 354.947 319.848 355.263 320.759 355.263C324.357 355.262 326.016 350.855 323.269 348.584C297.81 327.543 252.124 288.465 251.373 287.715C250.346 286.687 250.347 285.02 251.375 283.993L303.71 231.71C307.891 227.531 313.441 225 319.337 224.581C325.236 224.16 331.09 225.883 335.82 229.429C343.772 235.386 355.262 229.847 355.263 220.057V212.369C355.263 206.437 357.621 200.746 361.814 196.552C366.01 192.358 371.698 190 377.631 190C383.564 190 389.253 192.358 393.448 196.552C397.641 200.746 400 206.437 400 212.369V348.026C400 361.811 394.524 375.03 384.777 384.777C375.03 394.524 361.81 400 348.025 400H51.9736C38.1896 400 24.9695 394.524 15.2227 384.777C5.47592 375.03 7.41606e-05 361.811 0 348.026V51.9736C7.69398e-05 38.1895 5.47579 24.9695 15.2227 15.2227C24.9695 5.47583 38.1895 0.00012441 51.9736 0L249.881 0Z" fill="black"/>
<path d="M337.5 0C343.023 6.58593e-08 347.5 4.47715 347.5 10V88.1562C347.5 93.6789 351.977 98.1562 357.5 98.1562H387.75C394.516 98.1563 400 103.602 400 110.319V110.494C400 113.72 398.709 116.814 396.412 119.095L338.662 176.438C333.878 181.188 326.122 181.188 321.338 176.438L263.588 119.095C261.291 116.814 260 113.72 260 110.494V110.319C260 103.602 265.484 98.1563 272.25 98.1562H302.5C308.023 98.1562 312.5 93.6789 312.5 88.1562V10C312.5 4.47715 316.977 -6.58593e-08 322.5 0H337.5Z" fill="black"/>
</svg>
