<svg width="400" height="400" viewBox="0 0 400 400" fill="none" xmlns="http://www.w3.org/2000/svg">
<path fill-rule="evenodd" clip-rule="evenodd" d="M247.971 58.2711C252.235 63.8544 259.342 66.7921 266.303 65.8489C285.092 63.3661 296.796 31.7728 318.143 41.0237C331.982 47.0343 353.299 68.7918 358.971 81.8531C368.37 103.542 336.714 114.581 334.127 133.714C333.195 140.673 336.14 147.771 341.724 152.027C356.767 163.527 387.401 149.491 395.931 171.129C401.202 184.27 401.501 214.896 395.951 228.851C387.279 250.846 357.082 236.284 341.724 247.973C336.141 252.237 333.203 259.344 334.146 266.306C336.692 285.064 368.212 296.822 358.971 318.147C353.328 331.141 331.956 353.036 318.143 358.957C296.453 368.356 285.453 336.682 266.303 334.151C259.342 333.208 252.235 336.146 247.971 341.729C236.464 356.783 250.501 387.395 228.869 395.958C215.678 401.175 185.128 401.517 171.149 395.958C149.514 387.427 163.495 356.797 152.028 341.729C147.768 336.152 140.67 333.215 133.715 334.151C114.92 336.626 103.204 368.227 81.8564 358.976C68.7971 353.305 47.0378 331.985 41.0282 318.147C31.773 296.789 63.378 285.081 65.8527 266.286C66.7885 259.331 63.8517 252.233 58.2751 247.973C43.2324 236.473 12.5979 250.509 4.06777 228.871C-1.52211 214.935 -1.18076 184.296 4.04803 171.149C12.5865 149.492 43.2222 163.534 58.2751 152.027C63.859 147.771 66.8038 140.673 65.8724 133.714C63.3345 114.946 31.7831 103.168 41.0282 81.8334C46.7032 68.8402 68.0315 46.9488 81.8564 41.0237C103.18 31.7828 114.942 63.3037 133.696 65.8489C140.667 66.795 147.785 63.8485 152.048 58.2514C163.443 43.1691 149.542 12.5704 171.13 4.04235C184.321 -1.17478 214.871 -1.5174 228.85 4.04235C250.844 12.7144 236.283 42.9123 247.971 58.2711ZM200 278.936C220.934 278.936 241.011 270.619 255.814 255.816C270.617 241.013 278.933 220.935 278.933 200C278.933 179.065 270.617 158.987 255.814 144.184C241.011 129.381 220.934 121.064 200 121.064C179.065 121.064 158.988 129.381 144.185 144.184C129.383 158.987 121.066 179.065 121.066 200C121.066 220.935 129.383 241.013 144.185 255.816C158.988 270.619 179.065 278.936 200 278.936Z" fill="black"/>
</svg>
