<svg width="400" height="400" viewBox="0 0 400 400" fill="none" xmlns="http://www.w3.org/2000/svg">
<path d="M45.1841 31.7273C72.3956 5.60395 105.448 -3.87831 137.517 1.40907C160.578 5.2121 182.04 16.457 199.984 32.8548C217.83 16.5134 239.127 5.32983 262.105 1.56887C294.046 -3.65821 326.888 5.86915 354.349 31.5142C408.263 81.8645 414.208 166.271 373.322 225.391C357.695 247.983 327.321 281.769 298.319 312.528C268.924 343.703 239.61 373.161 225.154 387.547L224.939 387.76C223.605 389.089 221.745 390.94 219.942 392.465C217.82 394.261 214.405 396.814 209.626 398.413C204.097 400.263 198.155 400.497 192.518 399.106L190.129 398.413C185.355 396.815 181.946 394.262 179.822 392.465C178.053 390.969 176.239 389.162 174.91 387.837L174.61 387.538C160.153 373.151 130.829 343.701 101.436 312.528C72.4345 281.77 42.0678 247.983 26.4422 225.391C-14.6159 166.024 -7.47472 82.2821 45.1841 31.7273Z" fill="black"/>
</svg>
