<svg width="400" height="400" viewBox="0 0 400 400" fill="none" xmlns="http://www.w3.org/2000/svg">
<path d="M183.278 26.7103C188.401 11.2576 190.961 3.53141 194.75 1.39004C198.027 -0.463348 201.973 -0.463348 205.252 1.39004C209.039 3.53141 211.599 11.2576 216.722 26.7103L250.586 128.868C252.045 133.266 252.773 135.465 254.087 137.103C255.247 138.549 256.727 139.677 258.398 140.387C260.288 141.191 262.508 141.238 266.947 141.333L370.065 143.537C385.664 143.87 393.462 144.037 396.576 147.152C399.269 149.849 400.488 153.785 399.82 157.626C399.05 162.066 392.834 167.006 380.402 176.892L298.211 242.23C294.673 245.045 292.904 246.451 291.824 248.266C290.871 249.872 290.306 251.696 290.178 253.58C290.034 255.715 290.676 257.942 291.962 262.4L321.83 365.92C326.346 381.579 328.606 389.409 326.742 393.474C325.129 396.994 321.936 399.426 318.245 399.948C313.98 400.549 307.578 395.878 294.772 386.534L210.112 324.759C206.467 322.1 204.646 320.77 202.665 320.253C200.915 319.798 199.085 319.798 197.337 320.253C195.356 320.77 193.533 322.1 189.888 324.759L105.229 386.534C92.4228 395.878 86.0199 400.549 81.7556 399.948C78.0651 399.426 74.8718 396.994 73.2588 393.474C71.3951 389.409 73.654 381.579 78.1717 365.92L108.039 262.4C109.324 257.942 109.967 255.715 109.822 253.58C109.695 251.696 109.129 249.872 108.176 248.266C107.097 246.451 105.327 245.045 101.789 242.23L19.5997 176.892C7.16747 167.006 0.951332 162.066 0.179681 157.626C-0.488404 153.785 0.731368 149.849 3.42517 147.152C6.53745 144.037 14.3365 143.87 29.9344 143.537L133.053 141.333C137.492 141.238 139.712 141.191 141.603 140.387C143.274 139.677 144.754 138.549 145.914 137.103C147.228 135.465 147.956 133.266 149.414 128.868L183.278 26.7103Z" fill="black"/>
</svg>
