<svg width="400" height="400" viewBox="0 0 400 400" fill="none" xmlns="http://www.w3.org/2000/svg">
<path d="M336.579 348.039C333.823 359.006 323.236 365.487 312.978 362.486C304.649 360.048 298.872 351.969 298.865 342.749L298.817 281.536C298.809 271.678 307.625 264.54 316.515 267.206C323.984 269.446 331.727 264.741 333.737 256.741L368.619 117.889C372.248 103.443 364.217 88.5925 350.684 84.7257L171.186 33.4368C157.665 29.5734 143.769 38.1374 140.141 52.57L134.128 76.4877C132.668 82.2949 127.737 86.3322 122.106 86.3322C113.919 86.3322 107.962 78.0405 110.083 69.5991L122.531 20.0629C126.159 5.62913 140.055 -2.93639 153.577 0.92692L381.192 65.9588C394.726 69.8255 402.758 84.6775 399.128 99.1242L336.579 348.039ZM287.148 372.929C287.148 387.88 275.796 400 261.792 400H25.3564C11.3525 400 0 387.88 0 372.929V121.684C0 106.733 11.3524 94.6125 25.3564 94.6125H261.792C275.796 94.6125 287.148 106.733 287.148 121.684V372.929ZM262.246 148.239C262.246 133.288 250.894 121.168 236.89 121.168H50.2586C36.2547 121.168 24.9022 133.288 24.9022 148.239V279.972C24.9022 294.923 36.2547 307.043 50.2586 307.043H236.89C250.894 307.043 262.246 294.923 262.246 279.972V148.239ZM87.6511 242.975C92.8605 248.469 101.501 247.369 105.355 240.723L115.478 223.265C120.988 213.763 133.367 212.251 140.744 220.18C147.97 227.946 160.05 226.683 165.727 217.567L170.096 210.551C180.175 194.365 203.118 196.856 209.939 214.877L220.692 243.287C227.427 261.082 215.159 280.501 197.182 280.501H81.2591C68.4429 280.501 60.1096 266.098 65.8466 253.862L69.4457 246.186C72.9146 238.788 82.1378 237.161 87.6511 242.975ZM80.8139 201.778C70.494 201.778 62.131 192.873 62.131 181.868C62.131 170.863 70.494 161.958 80.8139 161.958C91.1337 161.958 99.4843 170.863 99.4843 181.868C99.4843 192.873 91.1337 201.778 80.8139 201.778Z" fill="black"/>
</svg>
