<svg width="400" height="400" viewBox="0 0 400 400" fill="none" xmlns="http://www.w3.org/2000/svg">
<path fill-rule="evenodd" clip-rule="evenodd" d="M30.5367 213.667C36.1627 213.667 41.5184 211.491 45.2448 207.692L185.097 65.0864C192.911 57.1188 206.7 57.1188 214.513 65.0864L354.365 207.692C358.092 211.491 363.447 213.667 369.073 213.667H380.329C397.57 213.667 406.438 195.067 394.573 183.79L363.09 153.868C361.164 151.998 360.094 149.54 360.094 146.988V51.8417C360.094 46.2564 355.071 41.7287 348.875 41.7287H301.703C295.507 41.7287 290.485 46.2564 290.485 51.8417V57.5927C290.485 62.9839 290.485 70.4359 290.485 75.6771C290.485 77.9399 287.411 79.0353 285.686 77.389L207.99 3.23307C203.543 -1.08581 195.958 -1.07637 191.524 3.25356L5.28954 183.922C-6.38162 195.244 2.52542 213.667 19.6707 213.667H30.5367Z" fill="black"/>
<path fill-rule="evenodd" clip-rule="evenodd" d="M185.37 82.1725C193.167 74.3899 206.719 74.3922 214.513 82.1774L355.175 222.679C358.431 225.931 360.233 230.109 360.233 234.49C360.233 284.561 360.094 389.887 360.094 389.887C360.094 395.472 355.071 400 348.875 400H261.718C255.523 400 250.5 395.472 250.5 389.887V272.828C250.5 267.243 245.478 262.715 239.282 262.715H161.218C155.022 262.715 150 267.243 150 272.828V389.887C150 395.472 144.977 400 138.782 400H50.6137C44.418 400 39.3954 395.472 39.3954 389.887C39.3954 389.887 39.5351 284.516 39.5351 234.494C39.5351 230.111 41.3391 225.931 44.5979 222.678L185.37 82.1725Z" fill="black"/>
</svg>
