<svg width="295" height="400" viewBox="0 0 295 400" fill="none" xmlns="http://www.w3.org/2000/svg">
<path fill-rule="evenodd" clip-rule="evenodd" d="M295 145.436C294.901 65.1133 228.898 0 147.45 0C66.0025 8.13255e-05 0.000125408 65.1134 0 145.436C0 170.388 6.35715 193.85 17.5811 214.328C36.3043 248.625 100.32 346.593 130.962 393.067C145.761 406.934 160.263 396.248 163.988 393.067C194.432 346.692 258.001 249.122 276.873 215.322C288.445 194.595 295 170.736 295 145.436ZM147.45 83.8028C185.246 83.803 215.995 114.576 215.995 152.401C215.995 190.227 185.246 221 147.45 221C109.654 221 78.9044 190.227 78.9043 152.401C78.9043 114.576 109.654 83.8028 147.45 83.8028Z" fill="black"/>
</svg>
