<svg width="400" height="400" viewBox="0 0 400 400" fill="none" xmlns="http://www.w3.org/2000/svg">
<path fill-rule="evenodd" clip-rule="evenodd" d="M233.626 7.9195e-07C259.99 0.00342938 285.977 6.27139 309.444 18.2875C332.911 30.3035 353.187 47.7235 368.601 69.1122C384.014 90.5008 394.126 115.246 398.099 141.308C402.073 167.37 399.797 194.005 391.457 219.015C383.119 244.025 368.956 266.695 350.136 285.158C331.316 303.622 308.379 317.349 283.213 325.208C258.047 333.068 231.373 334.836 205.39 330.366C179.407 325.896 154.857 315.316 133.766 299.498C132.511 303.176 130.433 306.616 127.491 309.538L44.4007 392.622C39.4631 397.406 32.8423 400.056 25.9676 399.999C19.0929 399.943 12.5162 397.185 7.65775 392.322C2.79929 387.458 0.0489298 380.878 0.000646572 374.003C-0.0476367 367.129 2.60998 360.512 7.39964 355.58L90.4897 272.495C93.3044 269.669 96.7326 267.529 100.508 266.242C81.9609 241.522 70.6649 212.125 67.8864 181.346C65.1079 150.567 70.9566 119.623 84.777 91.9816C98.5974 64.3399 119.844 41.0932 146.134 24.847C172.424 8.60075 202.72 -0.00301386 233.626 7.9195e-07ZM358.044 166.387C358.044 150.05 354.826 133.871 348.573 118.777C342.32 103.683 333.156 89.9677 321.603 78.415C310.049 66.8622 296.333 57.6981 281.239 51.4458C266.143 45.1935 249.964 41.9755 233.626 41.9755C217.286 41.9755 201.107 45.1935 186.013 51.4458C170.917 57.6981 157.201 66.8622 145.649 78.415C134.095 89.9677 124.93 103.683 118.677 118.777C112.425 133.871 109.207 150.05 109.207 166.387C109.207 199.383 122.315 231.029 145.649 254.36C168.981 277.692 200.627 290.799 233.626 290.799C266.623 290.799 298.27 277.692 321.603 254.36C344.936 231.029 358.044 199.383 358.044 166.387Z" fill="black"/>
</svg>
