<svg width="400" height="400" viewBox="0 0 400 400" fill="none" xmlns="http://www.w3.org/2000/svg">
<path d="M195.574 0C228.562 0 255.555 26.9984 255.557 59.9971V120.001C255.556 131.001 246.558 140.003 235.562 140.003C224.567 140.002 215.569 131 215.568 120.001V59.9971C215.566 48.9984 206.569 40.0029 195.574 40.0029H59.9829C48.9873 40.0029 39.9902 48.9984 39.9886 59.9971V200.839C39.9886 251.183 55.5558 259.048 96.2967 259.048C125.926 259.048 214.816 259.997 235.562 259.997C246.558 259.997 255.556 268.999 255.557 279.999V340.003C255.555 373.002 228.562 400 195.574 400H59.9829C26.9942 400 0.00157446 373.002 0 340.003V59.9971C0.00157834 26.9984 26.9942 0 59.9829 0H195.574Z" fill="#064B40"/>
<path d="M286.156 102.843C293.903 95.0929 306.656 95.0929 314.404 102.843L394.374 182.841C395.373 183.591 396.127 184.843 396.877 185.843C397.126 186.342 397.372 186.842 397.622 187.341C397.871 188.09 398.377 188.588 398.627 189.337C398.877 190.087 398.876 190.591 399.126 191.341C399.376 192.09 399.625 192.592 399.625 193.092C400.125 195.591 400.125 198.34 399.625 200.839C399.625 201.588 399.376 202.09 399.126 202.59C398.876 203.34 398.624 203.843 398.374 204.593C398.124 205.342 397.625 205.841 397.376 206.59C397.126 207.089 396.873 207.588 396.623 208.087V208.341C396.374 208.59 396.121 208.843 395.871 209.093C395.123 209.842 394.623 210.594 394.374 210.843L314.404 290.842C310.405 294.592 305.401 296.593 300.153 296.593C294.906 296.593 289.908 294.841 285.91 290.842C278.163 283.093 278.164 270.344 285.91 262.594L331.642 216.84H99.9642C88.9691 216.839 79.9772 207.838 79.9772 196.839C79.9781 185.841 88.9696 176.839 99.9642 176.837H331.895L286.156 131.091C278.411 123.342 278.411 110.593 286.156 102.843Z" fill="#064B40"/>
</svg>
