<svg width="40" height="40" viewBox="0 0 40 40" fill="none" xmlns="http://www.w3.org/2000/svg">
<path fill-rule="evenodd" clip-rule="evenodd" d="M40 37.2414H0V40H40V37.2414ZM21.4286 11.0345H24.2857V10.8331C24.2891 9.80777 23.995 8.80201 23.4368 7.92976C22.8785 7.05752 22.0784 6.35366 21.1271 5.89793L17.2943 4.04828C16.8185 3.82051 16.4183 3.46862 16.1391 3.03249C15.8598 2.59636 15.7127 2.09343 15.7143 1.58069V0H12.8571V1.58069C12.8536 2.60588 13.1475 3.61154 13.7055 4.48377C14.2635 5.356 15.0633 6.05994 16.0143 6.51586L19.85 8.36552C20.3255 8.59348 20.7254 8.94545 21.0044 9.38156C21.2834 9.81768 21.4303 10.3205 21.4286 10.8331V11.0345Z" fill="#262626"/>
<path fill-rule="evenodd" clip-rule="evenodd" d="M8.57143 13.7931H32.1429C33.8478 13.7931 35.483 14.447 36.6885 15.6111C37.8941 16.7751 38.5714 18.3538 38.5714 20C38.5714 21.6462 37.8941 23.2249 36.6885 24.3889C35.483 25.553 33.8478 26.2069 32.1429 26.2069H31.4286V27.5862C31.4263 29.4146 30.673 31.1675 29.334 32.4604C27.9949 33.7533 26.1794 34.4806 24.2857 34.4828H12.8571C10.9634 34.4806 9.14794 33.7533 7.80889 32.4604C6.46983 31.1675 5.71655 29.4146 5.71429 27.5862V16.5517C5.71429 15.8201 6.01531 15.1184 6.55112 14.6011C7.08694 14.0837 7.81367 13.7931 8.57143 13.7931ZM34.6682 22.4383C33.9985 23.085 33.0901 23.4483 32.1429 23.4483H31.4286V16.5517H32.1429C33.0901 16.5517 33.9985 16.915 34.6682 17.5617C35.338 18.2084 35.7143 19.0855 35.7143 20C35.7143 20.9145 35.338 21.7916 34.6682 22.4383Z" fill="#262626"/>
</svg>
