<svg width="40" height="40" viewBox="0 0 40 40" fill="none" xmlns="http://www.w3.org/2000/svg">
<path d="M38.5417 0.538747C38.0951 0.255562 37.5803 0.077542 37.0422 0.0202096C36.504 -0.0371228 35.9588 0.027974 35.4542 0.209823C32.5312 1.26007 26.6292 3.02203 20 3.02203C13.3708 3.02203 7.46667 1.26007 4.53958 0.209823C4.03455 0.028815 3.48934 -0.035813 2.95117 0.0215341C2.41299 0.0788812 1.89806 0.256475 1.45096 0.53894C1.00386 0.821406 0.638068 1.20023 0.385245 1.64261C0.132422 2.085 0.000190481 2.57761 0 3.07781V13.8053C0 20.6993 2.01042 27.2027 5.6625 32.1135C9.44583 37.2032 14.5375 40 20 40C25.4625 40 30.5542 37.1974 34.3375 32.1135C37.9896 27.2066 40 20.7031 40 13.8092V3.07781C39.999 2.57697 39.8657 2.08393 39.6115 1.64146C39.3574 1.19899 38.9902 0.820466 38.5417 0.538747ZM9.58333 19.4913C9.43737 19.6429 9.26051 19.7664 9.06285 19.8549C8.86518 19.9433 8.65058 19.9949 8.4313 20.0068C7.98844 20.0308 7.5534 19.8914 7.22188 19.6192C6.89035 19.3471 6.68951 18.9644 6.66353 18.5556C6.63755 18.1467 6.78856 17.745 7.08333 17.4389C8.28125 16.2117 10.4542 15.3884 12.5 15.3884C14.5458 15.3884 16.7188 16.2117 17.9167 17.4389C18.0626 17.5905 18.1748 17.7671 18.2469 17.9587C18.3189 18.1503 18.3493 18.3531 18.3365 18.5556C18.3236 18.758 18.2677 18.9562 18.1719 19.1387C18.0761 19.3212 17.9423 19.4845 17.7781 19.6192C17.614 19.754 17.4227 19.8576 17.2152 19.9241C17.0077 19.9906 16.788 20.0187 16.5687 20.0068C16.3494 19.9949 16.1348 19.9433 15.9372 19.8549C15.7395 19.7664 15.5626 19.6429 15.4167 19.4913C14.8583 18.9142 13.5729 18.4661 12.5 18.4661C11.4271 18.4661 10.1333 18.9162 9.58333 19.4913ZM28.4354 28.6973C27.4009 29.8307 26.1107 30.7416 24.6551 31.3666C23.1995 31.9915 21.6136 32.3153 20.0083 32.3153C18.4031 32.3153 16.8172 31.9915 15.3615 31.3666C13.9059 30.7416 12.6158 29.8307 11.5812 28.6973C11.4234 28.5464 11.3006 28.3673 11.2205 28.1709C11.1404 27.9746 11.1046 27.7652 11.1153 27.5556C11.126 27.3461 11.1831 27.1407 11.2829 26.9522C11.3828 26.7638 11.5233 26.5961 11.6959 26.4596C11.8685 26.3231 12.0695 26.2207 12.2865 26.1585C12.5036 26.0964 12.7321 26.0759 12.958 26.0983C13.184 26.1207 13.4026 26.1855 13.6004 26.2888C13.7982 26.392 13.9711 26.5316 14.1083 26.6988C14.8297 27.4939 15.7311 28.1334 16.749 28.5721C17.7669 29.0109 18.8766 29.2383 20 29.2383C21.1234 29.2383 22.2331 29.0109 23.251 28.5721C24.2689 28.1334 25.1703 27.4939 25.8917 26.6988C26.1787 26.3884 26.5876 26.1959 27.0283 26.1638C27.469 26.1317 27.9054 26.2626 28.2417 26.5276C28.5779 26.7926 28.7863 27.1701 28.8211 27.577C28.8558 27.9839 28.7141 28.3869 28.4271 28.6973H28.4354ZM32.7792 19.6202C32.616 19.755 32.4257 19.8588 32.219 19.9257C32.0124 19.9926 31.7935 20.0212 31.5749 20.01C31.3563 19.9987 31.1422 19.9478 30.9449 19.8601C30.7476 19.7724 30.5709 19.6497 30.425 19.499C29.8667 18.9219 28.5812 18.4738 27.5083 18.4738C26.4354 18.4738 25.1417 18.9239 24.5917 19.499C24.4452 19.6511 24.2676 19.775 24.0693 19.8637C23.8709 19.9525 23.6555 20.0042 23.4355 20.0161C23.2154 20.028 22.995 19.9997 22.7867 19.933C22.5785 19.8662 22.3866 19.7622 22.2219 19.6269C22.0572 19.4916 21.9229 19.3278 21.8268 19.1446C21.7308 18.9614 21.6747 18.7626 21.6618 18.5594C21.6489 18.3562 21.6795 18.1527 21.7519 17.9604C21.8242 17.7682 21.9368 17.591 22.0833 17.4389C23.2729 16.2117 25.4458 15.3884 27.5 15.3884C29.5542 15.3884 31.7188 16.2117 32.9167 17.4389C33.0636 17.5901 33.1766 17.7666 33.2493 17.9584C33.322 18.1501 33.3528 18.3532 33.34 18.556C33.3272 18.7588 33.2711 18.9572 33.1748 19.1399C33.0786 19.3225 32.9441 19.4858 32.7792 19.6202Z" fill="#262626"/>
</svg>
