<svg width="40" height="40" viewBox="0 0 40 40" fill="none" xmlns="http://www.w3.org/2000/svg">
<path d="M20 11.6845C21.7681 11.6845 23.4638 11.069 24.714 9.97336C25.9643 8.87772 26.6667 7.39172 26.6667 5.84226C26.6667 4.2928 25.9643 2.80679 24.714 1.71116C23.4638 0.615522 21.7681 0 20 0C18.2319 0 16.5362 0.615522 15.286 1.71116C14.0357 2.80679 13.3333 4.2928 13.3333 5.84226C13.3333 7.39172 14.0357 8.87772 15.286 9.97336C16.5362 11.069 18.2319 11.6845 20 11.6845ZM20 18.5784C14.7556 14.3135 7.77778 11.6845 0 11.6845V33.1061C7.77778 33.1061 14.7556 35.7351 20 40C25.2444 35.7351 32.2222 33.1061 40 33.1061V11.6845C32.2222 11.6845 25.2444 14.3135 20 18.5784Z" fill="#262626"/>
</svg>
