<svg width="40" height="40" viewBox="0 0 40 40" fill="none" xmlns="http://www.w3.org/2000/svg">
<path d="M8.92212 24.7943C9.09853 24.7943 9.26854 24.8651 9.39348 24.9896L10.5472 26.1458C12.0622 27.6496 14.1105 28.4955 16.2452 28.5C16.5279 28.4984 16.8106 28.4816 17.0916 28.4505C17.1428 28.4446 17.1957 28.449 17.2452 28.4635C17.2951 28.4783 17.3432 28.5033 17.3832 28.5365C17.423 28.5695 17.4558 28.6104 17.4796 28.6562C17.5034 28.7026 17.5175 28.7553 17.5212 28.8073V28.8281C17.5265 28.8846 17.5194 28.9414 17.5004 28.9948C17.4814 29.0482 17.4516 29.0975 17.4119 29.138L7.96377 38.6302C7.53143 39.0652 7.01721 39.4108 6.45072 39.6458C5.8839 39.8808 5.27523 40.0014 4.66162 40C2.87698 39.9999 1.24463 38.9997 0.403723 37.2786C0.356109 37.1814 0.313764 37.079 0.278721 36.9766C-0.345565 35.1571 0.105201 33.2986 1.36728 32.0364L8.45076 24.9896C8.57565 24.8651 8.74575 24.7944 8.92212 24.7943Z" fill="black"/>
<path d="M32.0163 1.95608e-05C32.3421 -0.00177307 32.6578 0.11971 32.8992 0.338561C33.0325 0.459772 33.1393 0.606966 33.2143 0.770852C33.2892 0.934713 33.3322 1.11157 33.3367 1.29169C33.341 1.47214 33.3074 1.65274 33.2403 1.82033C33.1732 1.98779 33.0736 2.14068 32.946 2.26825L27.2506 7.96095C26.8532 8.3592 26.8323 9.03156 27.2298 9.4297C27.4217 9.62138 27.6825 9.72904 27.9537 9.72918C28.2252 9.72918 28.4857 9.62149 28.6777 9.4297L34.3679 3.7422C34.497 3.61298 34.6498 3.51016 34.8185 3.44012C34.9873 3.37006 35.1695 3.33343 35.3523 3.33335C35.6778 3.33178 35.9915 3.45324 36.2326 3.67189C36.3661 3.79318 36.4752 3.94011 36.5503 4.10418C36.625 4.26785 36.6656 4.44515 36.6701 4.62502C36.6744 4.80547 36.6408 4.98607 36.5737 5.15366C36.5066 5.32101 36.4069 5.47409 36.2794 5.60158L30.5866 11.2943C30.1883 11.6926 30.1666 12.3673 30.5658 12.7656C30.7577 12.9569 31.0187 13.0651 31.2897 13.0651C31.5603 13.0648 31.8195 12.9566 32.0111 12.7656L37.7326 7.04949C37.8598 6.92244 38.0111 6.82221 38.1779 6.75522C38.3454 6.68814 38.5261 6.65456 38.7066 6.65887C38.8871 6.66323 39.0658 6.70612 39.23 6.78126C39.3938 6.85635 39.5412 6.96293 39.6623 7.09637C40.1456 7.62887 40.0995 8.45605 39.592 8.96355L33.1752 15.375C32.5578 15.9959 31.8226 16.4876 31.0137 16.8229C30.2043 17.1582 29.335 17.3305 28.459 17.3281H27.7714C27.5965 17.3282 27.4227 17.3627 27.261 17.4297C27.0994 17.4967 26.9524 17.595 26.8287 17.7188L23.8625 20.6875C23.8317 20.7183 23.8064 20.7541 23.7896 20.7943C23.7729 20.8345 23.7636 20.8783 23.7636 20.9219C23.7636 20.9655 23.7729 21.0091 23.7896 21.0495C23.8064 21.0899 23.8315 21.1279 23.8625 21.1589L35.1101 32.4062C35.943 33.239 36.4096 34.3691 36.4096 35.5469C36.4097 36.7247 35.9429 37.8546 35.1101 38.6875C34.2774 39.5202 33.1472 39.9869 31.9694 39.987C30.7918 39.9869 29.6615 39.5201 28.8288 38.6875L28.8209 38.6797L21.3182 31.0495C20.5809 30.3029 20.1675 29.2941 20.1697 28.2448V27.7812C20.1684 27.4318 20.0314 27.0961 19.7869 26.8464L18.839 25.9687C18.5936 25.7412 18.27 25.6146 17.9353 25.6146C17.8212 25.6149 17.7072 25.63 17.5968 25.6589C17.1557 25.7741 16.701 25.8335 16.2452 25.8333C14.8154 25.8331 13.4447 25.2651 12.4326 24.2552L5.31007 17.1354C2.38265 14.2121 0.569872 10.2442 0.578206 6.79428C0.578375 4.7055 1.25342 2.94079 2.51574 1.69012C2.76605 1.44218 3.10357 1.30143 3.45587 1.3021C3.80852 1.30304 4.14676 1.44584 4.39599 1.69533L18.8364 16.1354C18.8673 16.1664 18.9053 16.1916 18.9458 16.2083C18.986 16.2249 19.0299 16.2318 19.0734 16.2318C19.117 16.2317 19.1607 16.225 19.201 16.2083C19.2411 16.1917 19.2769 16.1661 19.3077 16.1354L22.2765 13.1667C22.4003 13.043 22.4986 12.896 22.5656 12.7344C22.6327 12.5724 22.6673 12.3967 22.6672 12.2214V11.5365C22.6648 10.6606 22.8373 9.79359 23.1724 8.98439C23.5077 8.17491 23.9991 7.43816 24.6203 6.82033L31.0319 0.408873C31.2928 0.148042 31.6475 0.000698904 32.0163 1.95608e-05Z" fill="black"/>
</svg>
